<?xml version="1.0" standalone="no"?>
<!DOCTYPE svg PUBLIC "-//W3C//DTD SVG 20010904//EN"
 "http://www.w3.org/TR/2001/REC-SVG-20010904/DTD/svg10.dtd">
<svg version="1.0" xmlns="http://www.w3.org/2000/svg"
 width="700.000000pt" height="700.000000pt" viewBox="0 0 700.000000 700.000000"
 preserveAspectRatio="xMidYMid meet">
<metadata>
Created by potrace 1.14, written by Peter Selinger 2001-2017
</metadata>
<g transform="translate(0.000000,700.000000) scale(0.100000,-0.100000)"
fill="#000000" stroke="none">
<path d="M2176 6924 c-64 -15 -126 -49 -126 -67 0 -7 -11 -33 -24 -59 -23 -45
-23 -48 -5 -48 10 0 23 -9 29 -20 17 -32 -11 -83 -73 -130 -31 -23 -63 -53
-73 -67 -25 -39 -20 -99 14 -178 18 -42 33 -96 36 -135 8 -91 14 -122 41 -228
61 -231 166 -399 302 -478 33 -20 45 -35 58 -73 15 -45 40 -77 75 -96 8 -4 0
8 -19 28 -31 33 -32 36 -14 45 11 6 28 9 39 7 10 -2 22 -4 26 -4 4 -1 6 -13 5
-28 -2 -23 3 -28 28 -33 20 -4 26 -8 18 -13 -20 -13 -15 -26 7 -22 37 7 64
-10 65 -40 0 -27 4 -30 70 -46 39 -10 73 -18 76 -18 3 -1 4 12 1 29 -3 19 -8
27 -16 23 -6 -4 -5 1 2 9 17 21 45 11 39 -13 -6 -22 18 -26 26 -5 6 14 -59
136 -72 136 -3 0 -7 11 -7 25 -1 14 -10 37 -20 52 -9 15 -18 39 -19 53 -1 14
-28 106 -59 205 -91 290 -116 408 -120 584 -4 150 26 306 79 408 13 25 13 102
0 154 -10 40 -69 56 -210 57 -70 0 -145 -6 -179 -14z m454 -1308 c0 -15 -18
-31 -26 -23 -7 7 7 37 17 37 5 0 9 -6 9 -14z"/>
<path d="M2755 5229 c-4 -6 -5 -12 -2 -15 2 -3 7 2 10 11 7 17 1 20 -8 4z"/>
<path d="M2612 5188 c-29 -8 -32 -11 -20 -25 7 -9 35 -27 63 -39 39 -18 52
-21 63 -11 12 10 10 13 -17 21 -33 9 -39 24 -19 44 7 7 10 12 8 13 -27 5 -50
4 -78 -3z"/>
<path d="M2915 5190 c-3 -5 -1 -10 4 -10 6 0 11 5 11 10 0 6 -2 10 -4 10 -3 0
-8 -4 -11 -10z"/>
<path d="M2752 5086 c16 -8 32 -18 38 -21 5 -3 10 3 10 14 0 18 -6 21 -37 21
l-38 0 27 -14z"/>
<path d="M2935 5070 c-3 -5 -1 -10 4 -10 6 0 11 -9 11 -19 0 -25 15 -35 28
-18 13 16 -3 57 -22 57 -8 0 -18 -4 -21 -10z"/>
<path d="M783 3534 c-77 -28 -159 -135 -183 -239 -13 -55 -13 -165 0 -530 0
-17 2 -17 10 -5 8 13 11 13 23 0 24 -26 45 -94 52 -166 15 -163 68 -372 128
-506 62 -139 170 -271 282 -346 139 -92 270 -127 475 -127 190 1 352 32 575
109 180 62 409 144 450 159 135 51 356 163 705 357 551 307 717 388 956 468
208 70 339 91 519 86 61 -2 117 -5 125 -7 8 -2 31 -7 50 -11 94 -20 254 -87
318 -132 12 -9 22 -12 22 -7 0 5 -9 15 -20 23 -11 8 -20 20 -20 27 0 13 21 11
96 -13 46 -14 52 -19 69 -64 20 -52 62 -98 138 -149 52 -35 51 -34 37 -61 -8
-16 -2 -23 43 -48 70 -40 111 -87 180 -208 37 -66 82 -127 128 -175 39 -41
115 -127 170 -192 l99 -118 0 37 c0 35 -1 36 -14 18 -14 -18 -16 -15 -45 46
-17 36 -34 81 -37 102 -4 24 -13 38 -25 41 -13 4 -19 14 -19 33 l0 28 28 -27
c35 -34 72 -105 72 -139 0 -14 9 -33 20 -43 20 -18 20 -17 20 16 0 19 -12 54
-26 79 -14 25 -44 79 -66 120 -23 41 -64 113 -92 160 -28 47 -57 98 -65 113
-8 16 -29 45 -46 65 -18 20 -49 69 -70 107 -53 97 -88 147 -157 223 -33 36
-68 83 -79 105 -18 35 -190 216 -264 277 -70 59 -220 136 -317 165 -167 48
-413 57 -607 23 -231 -41 -536 -138 -766 -242 -27 -13 -60 -26 -72 -30 -12 -4
-53 -22 -92 -41 -40 -19 -73 -35 -75 -35 -3 0 -62 -27 -133 -61 -70 -34 -164
-78 -208 -99 -44 -21 -137 -65 -206 -98 -180 -86 -449 -204 -550 -241 -404
-147 -668 -161 -864 -47 -154 91 -282 316 -321 566 -3 19 -7 42 -9 50 -14 51
-34 243 -39 381 -3 65 -8 85 -33 125 -16 28 -50 63 -77 82 -40 26 -57 32 -100
31 -28 0 -70 -7 -93 -15z m4481 -496 c25 -25 36 -43 28 -45 -13 -5 -68 37 -90
68 -26 37 19 21 62 -23z m515 -532 c7 -8 8 -17 3 -20 -6 -3 -12 3 -15 14 -6
24 -4 25 12 6z"/>
<path d="M3988 2015 c-2 -2 -23 -4 -48 -6 -51 -3 -136 -29 -172 -53 -15 -9
-30 -34 -37 -59 -7 -23 -21 -56 -31 -73 -17 -30 -17 -31 0 -27 23 6 51 -24 47
-50 -5 -37 -37 -80 -87 -119 -52 -41 -80 -89 -80 -136 0 -16 15 -70 34 -119
26 -67 35 -105 35 -154 2 -251 116 -544 312 -805 71 -94 89 -114 89 -95 0 13
59 15 77 3 8 -5 9 -13 3 -22 -17 -26 -11 -38 20 -45 33 -7 37 -14 18 -33 -9
-9 -6 -12 16 -12 46 0 66 -16 60 -49 -6 -26 -3 -29 53 -50 32 -13 71 -30 87
-38 27 -15 29 -15 23 1 -4 10 -7 27 -7 37 0 11 -4 17 -10 14 -6 -3 -7 1 -4 10
9 23 38 14 42 -13 4 -24 20 -30 27 -9 6 13 -61 147 -73 147 -4 0 -7 16 -8 35
0 20 -10 49 -22 65 -12 16 -18 31 -13 35 6 3 6 18 0 37 -15 52 -107 450 -113
488 -3 19 -7 44 -10 55 -2 11 -7 42 -10 68 -4 27 -10 59 -12 70 -12 53 -11
337 1 417 16 104 43 210 58 228 11 14 13 118 4 157 -3 11 -6 30 -6 41 -1 17
-13 25 -55 38 -45 14 -199 29 -208 21z m322 -1504 c0 -13 -26 -32 -33 -24 -8
7 11 33 24 33 5 0 9 -4 9 -9z"/>
<path d="M5950 1812 c0 -5 7 -17 15 -28 8 -10 15 -24 15 -31 0 -12 39 -73 166
-261 52 -78 79 -111 86 -104 17 17 1 54 -48 112 -57 66 -76 108 -68 149 8 40
-9 66 -77 117 -56 42 -89 59 -89 46z"/>
<path d="M6430 1439 c0 -11 4 -18 10 -14 5 3 7 12 3 20 -7 21 -13 19 -13 -6z"/>
<path d="M6280 1285 c18 -33 48 -96 67 -140 l34 -80 -6 58 c-5 60 -38 121
-101 192 -25 28 -24 27 6 -30z"/>
<path d="M6494 1275 c1 -14 8 -30 15 -37 12 -11 13 -10 7 5 -3 10 -6 27 -6 38
0 10 -4 19 -8 19 -5 0 -8 -11 -8 -25z"/>
<path d="M4425 79 c-4 -6 -5 -12 -2 -15 2 -3 7 2 10 11 7 17 1 20 -8 4z"/>
</g>
</svg>
