<?xml version="1.0" encoding="utf-8"?>
<!-- Generator: Adobe Illustrator 28.0.0, SVG Export Plug-In . SVG Version: 6.00 Build 0)  -->
<svg version="1.1" id="Layer_1" xmlns="http://www.w3.org/2000/svg" xmlns:xlink="http://www.w3.org/1999/xlink" x="0px" y="0px"
	 viewBox="0 0 1920 733.6" style="enable-background:new 0 0 1920 733.6;" xml:space="preserve">
<style type="text/css">
	.st0{fill-rule:evenodd;clip-rule:evenodd;fill:#F2F3EF;}
	.st1{fill-rule:evenodd;clip-rule:evenodd;fill:#FCFBF9;}
	.st2{fill-rule:evenodd;clip-rule:evenodd;fill:#F5F4F0;}
	.st3{fill-rule:evenodd;clip-rule:evenodd;fill:#D7DCD5;}
	.st4{fill:#E8ECE7;}
	.st5{fill:#E1E6DF;}
	.st6{fill:#DBE1D8;}
</style>
<path id="Path_91" class="st0" d="M394.7,178.4c-0.8-1.4-1.4-2.9-1.9-4.5c-1.8-5.1-6.1-8.1-10-6.7c-2.5,0.9-4.7,0.8-6.8-1.2
	c-4.6-4.2-9.2-3.5-13.7,0.3c-0.5,0.3-1,0.6-1.5,0.9c-1.6,2-0.3,3.2,0.6,4.6c0.3,1.1,1,1.3,1.7,1.8s1.7,0.8,1.1,2.5
	c-1.4-0.2-1.9-1.8-2.6-3.1c-3.1-0.8-3.2-5.1-4.7-7.7c-2.3-5.1-5.4-7.5-10-7.2c-4.4,0.3-8.9-0.5-13.3-0.9c-1.6-0.1-3.1-0.9-4.2-2
	c-6.2-6-9.8-5.4-15.1,2.4c-0.8,1.3-1.8,2.6-3,2.1c-3.6-1.5-5.4,1.6-7.3,4.7c-2.4,3.7-2.4,3.6-5.5,0.8c-0.6-0.6-1.4-1.3-2.3-0.7
	c-2.3,1-4.3,0.9-6.4-1.3c-2-2-4.5-3.4-7.2-4.1c-3.5-1.1-6.6-0.9-9.8,2.4c-3.7,3.8-7.9,5.7-12.8,3.4c-4.1-1.9-8.5-2.2-12.9-2.1
	c-2.1,0.1-4,1-5.4,2.5c-4.8,4.4-9.8,7.7-15.9,5.7c-0.8-0.3-1.8-0.3-2.6,0.1c-4.2,2.7-8.7,2.4-13.1,2.8c-4.5,0.5-8.9,1.4-13.4-1.5
	c-5-3.3-10.4-4.5-15.8-1.3c-1.1,0.6-2.3,1-3.4,1.5c-2.7,1.5-6,0.6-7.6-1.9c-3.8-5.3-8.6-5.2-13.4-5c-2.8,0.1-4.8,2.4-5.9,6
	c-1.9,6.3-4.1,8.4-8.8,6.7c-7-2.6-13.1-1.1-18.7,4.9c-0.5,0.5-1,1-1.6,1.5c-4.5,3.7-13,2.7-16.6-2.3c-2-2.8-4.3-4-7-3.5
	c-3.9,0.8-7.9,0.3-11.5-1.3c-2.6-1.3-5.6-0.8-8.4,0.2c-5.3,2-10.6,0.8-15.2-2.6c-4.7-3.5-9.8-1.5-14.5-3.2c-0.5-0.2-1.3,0.3-1.8,0.8
	c-3.1,2.6-7.2,3.8-11.3,3.4c-3.9-0.4-7.4,1.1-10.9,3.6c-4.6,3.4-9.3,6.8-14.7,6.9c-3.4,0.1-6.6,1-9.5,2.7v39.8c2.9,0,5,0.5,7.5,0.5
	c6.9,0.2,13.9,3,20.6-1c3-1.8,6.3-2.2,9.5-2.9c4.7-0.9,9.1-4.4,14.2-2.3c4.3,1.7,8.8,0.9,13.2-0.9c2.4-1.1,5.1-1,7.4,0.3
	c8.7,5.2,18.4,4.4,27.3,7.8c0.7,0.2,1.5,0.2,2.3,0.1c10.3,0.2,19.8-4.4,29.4-8.8c1.9,3.3,4.9,2,7.3,3c7,3,14.5,4.1,21.6,2.6
	c10.9-2.2,21.5-6.4,32.3-10c14.2-4.8,28.4-10.1,42.7-14.9c1.4-0.5,2.7-1.1,3.9-1.9l0.8-0.2h0.7c1.9,0.2,2.3,0.9,4,0.5
	c6.2-1.3,12.5-4.1,18.7,0.3c0.4,0.3,1.1,0.1,1.6,0.2c4.9,1.1,10,0.7,14.8,2.6c4.1,0.7,8.3,0.7,12.4,0c3.2-0.3,6.5-0.7,9.7-1.1
	c3.7-0.4,7.5-0.4,10.9-2.4c5.2-2.9,10.5-5.5,16-7.8c2.6-1.2,5.4-2.1,8.2-2.6c5.5-1.2,10.2,2.6,15.4,3.3c4.8,0.7,9.6,0.7,14.4,0
	c9.3-2.3,18-7.3,27.1-10.4c1.7-0.6,2.4-1.9,2.4-4.7L394.7,178.4z"/>
<path id="Path_92" class="st1" d="M1422.7,244c-1.5-1.1-3.2-0.8-4.8-0.9c-9.7-0.4-19.4-1.9-28.8-4.4c-13.9-3.8-26.5-12.3-36.8-26
	c-0.7-0.9-1.4-1.8-2.2-2.6c-4.6-4.7-8.3-10.1-10.9-16.2c-1-2.3-2.3-3.2-4-2.8c-2.4,0.7-3.9-0.8-5.4-2.9c-1.7-2.2-2.8-5.6-5.3-6.3
	c-6.6-1.9-13.1-4.5-19.9-1.7c-9.6,4-19.5,2.7-29.1,0.6c-8-1.8-15.9-5.1-23.8-7.5c-4.6-1.4-9.2-2.5-13.9-1.7
	c-3.8,0.6-7.3-0.3-10.8-2.2c-7.4-3.9-15-6.2-22.9-5.9c-6.6,0.2-12.9,2.4-19.3,4.2c-3.3,0.8-6,3-7.3,6.1c-4.1,8.9-16,12.6-22.4,6.8
	c-2.6-2.4-6-3.8-9.5-3.9c-6,0-11.9-2-16.6-5.7c-8.4-6.6-17.2-9.1-26.9-7.7c-3.4,0.5-7.2,0.9-9.9-2.7c-1.9-2.7-4.8-4.6-8-5.4
	c-1.8-0.4-3.8-0.9-5.2-2.4c-4.3-4.5-8.6-4.1-13.3-1.7c-6.1,3.1-11.7,1-16.8-3.7c-3.2-3-4.3-2.9-6.9,1.2c-0.5,0.8-1,1.6-1.5,2.4
	c-2.4,3.7-4.5,6.2-8.4,5.2c-3.9-1-5.2-3.9-5.6-8.2c0-1.2-0.5-2.3-1.3-3.1c-0.9-0.7-1.6,0.2-2.1,1.2s-3,2.4-4.5,1.4
	c-6.8-4.5-10.3,0.1-16.2,3.8c-1.9,1.2-3.6,3.2-5.7,4.4c-2.9,1.7-5.4,2.4-6.7-2.8c-0.5-1.5-1.3-2.9-2.4-4.2c-2.5-3.3-6.3-4.4-8.6-2.7
	c-5.4,4.1-8.5,3.1-12.2-3.8c-4.1-7.7-5.7-8.4-12.4-5.5c-3.6,1.5-6.9,1.4-9.9-1.7c-2.7-2.9-6.5-4.5-10.4-4.3c-1.8,0-3.5-0.1-4.8-2.2
	c-1.2-2-3-2.8-4.7-3.8c-6.1-3.5-13.1-5.2-20.1-4.7c-1.7,0.1-3.4,0.2-4.8-1.9c-3.3-4.7-15.8-8.1-19.4-4.3c-3.7,3.9-8.1,5.7-11.9,9.1
	c-3.8,3.3-6.7,3.3-10.2-0.3c-1.8-1.9-3.2-1.5-4.4,0.8c-1,2-2.6,2.2-4.2,2.9c-4.1,1.7-7.6-1.2-11.4-1.7c-4.3-0.6-8.4-2.5-11.6-5.4
	c-1.1-0.9-2.2-1.7-3.3-0.3c-1.6,2.2-2.6,0.7-3.8-0.7c-2.9-3.3-6.1-5.2-10-3.9c-7,2.3-12.8,8.1-18.4,13.8c-2.6,2.7-5,4.3-8.1,4.3
	c-2.4,0-4.8-0.1-7.2,0.1c-1.7,0.1-3.5,0.4-4.3,2.6c-2.3,6-7.4,8.2-9.9,13.9c-0.6,1.2-1.7,2.1-2.8,1.8c-4.4-1.5-9.3-1.4-12.8-5.8
	c-2.8-3.3-6.2-6.1-10-8c-1.7-1.1-3.9-0.8-5.2,0.6c-12,11-24.2,11.4-36.8,1.7c-4.6-3.7-10.7-5-16.5-3.7c-6.9,1.4-12.6,7.1-18.9,10.4
	c-6.8,3.7-13.6,7.1-21.1,5.4c-2-0.5-4.1,0-5.7,1.3c-2.7,2.3-6.4,2.6-9.5,0.9c-5-2.7-11-3.2-16.4-1.3c-2.9,1.1-6.1,0.2-8.1-2.1
	c-4.1-4.4-8.7-4.2-13.4-3.2c-2.6,0.7-5.1,1.6-7.6,2.7c-4.7,1.8-9.3,2.6-14.2,1c-4.7-1.5-9.8-1.6-14.6-0.2c-8.9,2.7-18.1,3-27,6.2
	c-5.6,2-11.1,4.6-16.8,5.2c-13.3,1.4-26,7.5-39.2,8.7c-1.6,0.2-3.1,0.9-4.3,1.8c-5.7,3.8-11.7,2.9-17.6,1.3
	c-5.7-1.5-11.2-3.5-17-1.6c-2.6,0.8-5.5,0.8-8.1,0.1c-2.7-0.7-5.5-0.4-8,0.8c-4.6,1.9-9.2,3.5-13.8,5.3c-0.8,1.9-2.4,3.3-4.4,3.6
	c-2.5,0.6-4.9,1.5-7.2,2.6c-5.8,3.1-12,5.4-18.4,6.9c-4.4-0.1-8.9,0.2-13.3,0c-2-0.1-3.9-0.7-5.5-1.7c-2.4-1.3-5.1-1.9-7.8-1.8
	c-8.9,0-16.5,5.5-24.6,9.4c-2.9,1.4-5.8,3.2-9,3.1c-4.7-0.1-9.4,1.1-14.1,1.6c-3.9,0-7.7,0.1-11.6,0c-3.4-1-6.9-1.6-10.5-1.8
	c-4.5-0.2-8.9-0.8-12.9-3.9c-0.7-0.5-1.4-0.8-2.2-0.2c-2.9,2.4-6.2,1.9-9.4,2.9c-1.7,0.7-3.6-0.1-4.5-1.7c-0.6-0.3-1.4-0.2-1.9,0.2
	c-0.8,0.8-1,2.6-2.3,2.8c-5.4,1.1-10.5,4.2-15.9,5.6c-10.3,2.8-20.4,6.7-30.6,10.5c-2.1,0.8-4.2,1.7-6.4,1.6
	c-2.3-0.2-4.6,0.4-6.5,1.6c-10.6,6.6-21.8,6.4-33,4.6c-4.5-0.6-8.9-1.9-13-3.8c-0.5,0.1-1.1,0.2-1.6,0.4c-6.3,2.2-12.3,5.5-18.8,6.7
	c-6.9,1.3-13.7,0.4-20.5-1.9c-5-1.7-10.3-1.3-15.2-4c-2.1-1.1-4.4-1.6-6.7-1.4c-6.6,0.2-13.2,3.1-19.8,0.8c-3-1-5.5,0.7-8.3,1.6
	c-4.4,1.3-8.8,2.2-13.1,4.2c-3.3,1.5-7,1.9-10.5,1.1c-4.2-0.8-8.5-0.5-12.7-1.3c-1.7-0.4-3.4,0.4-4.1,2v31.8c1,0.2,2.2,0.5,3.3,0.7
	c3.3,2.1,7,0.3,10.4,1.3c0.6,0.8,1.3,0.5,2,0.6c2.7,1.4,5.8,1,8.3,3.1c2.3,2.2,5.1,3.9,8.2,4.9c2.5,0.7,4.6,2.2,6.3,4.2
	c1.6,1.8,3.3,2.5,5.4,1.7l1.9,0.2c1.7,0.8,3.5,0.5,5.2,0.6c6.3,0.3,12.7,1.9,18.9-0.6c0.7-0.3,1-1.2,1.3-2c3.6-0.2,7.2-0.9,10.7-2
	c0.5,0.4,1,0.9,1.3,1.4c3,0.6,5.7-0.7,8.5-1.6c0.9-0.5,1.5-1.4,1.6-2.4c0-0.1,0-0.1,0-0.1l3.4-0.9c0,0.1,0.1,0.1,0.1,0.2
	c0.5,0.6,0.9,1.2,1.6,1.3c2.9-0.3,5.8-0.1,8.5-1.5c0.6-0.3,1.1-0.7,1.5-1.2l1.3,0c0.9-1.1,1.7-2.2,2.4-3.4c1.9-3.6,5.1-6.4,9-7.8
	c1.3-0.6,2.6-1.2,3.9-1.9c0,0,0,0,0,0l5.2-0.3c1.1,0,2.3,0.7,3.3-0.6c3.7,0.8,7.3,2.5,11.1,2.6h0.3h0.3c0.2,2.2,1.7,2,2.7,2.6
	c2.4,1.3,4.8,2.4,7.2,3.6l0.7-0.6c0.1,0.1,0.3,0.3,0.4,0.4c1.2,0.8,2.7,1.1,4.1,0.9c6.3-0.8,12.4-2.6,18.7-3.4
	c3.6-0.6,7-2.1,9.8-4.4c3.9-2.9,8.1-4.5,12.8-4.2c7,0.5,14-0.2,20.7-2c0.7-0.9,1.3-1.6,1.9-2.2c1.6-0.2,3.1-0.7,4.5-1.4
	c0.5,0.3,1,0.8,1.6,1.3c3.5-1,6.9-2.4,10-4.3c0.1-0.9,0.5-1.7,1.2-2.4l0.5-0.2c0.7-0.1,1.5,0.5,2.4,1.3c3.5,0.5,7,0.2,10.5,0.2
	c1.4,0.3,2.7-0.7,4-1.1c0,0,0.1,0,0.1,0c0.8,0.2,1.7,0.3,2.5,0.3c0.6,0.5,1.1,1.1,1.4,1.8c4,2.1,8.2,3.1,12.2,5.2
	c0.5-0.5,1.2-0.8,1.9-0.7c0.5,0.5,1.1,1,1.8,1.2c0.5,0.6,0.9,1.2,1.3,1.8c5.2-0.4,10.4-1.7,15.7-1.9c0.4-0.7,0.8-1.4,1.2-2.1
	l2.5-0.5c0.5,0.5,0.9,1,1.2,1.6c2-0.1,4-0.9,5.6-2.1c0.1-0.6,0.2-1.2,0.4-1.7l5-1.4c0.2-0.3,0.5-0.4,0.8-0.4l-0.8,0.4
	c0.5,0,1,0,1.4,0c0.3,0.4,0.6,0.7,1,1c3.2,1.6,6.5,1.3,9.8,1c4-0.8,7.9-2.2,11.8-3.3c6-1.6,11.9-3.6,18.1-1.5
	c8.1,2.8,16.3,1.6,24.3-0.2c3.9-0.9,7.5-0.9,11.2,1c7.9,4.1,16.5,6.9,25.3,8.3c9,1.2,18.1,0.9,27-0.8c7.1-1.2,14.2-3.3,21.4-2.1
	c8.4,1.5,17.1,0.3,24.8-3.4c16.8-8.1,33.9-9,51.2-6.2c10.9,1.6,21.9,2.3,32.9,2.3c6.4,0.1,12.8,0.5,19.1,2.4c6,1.8,12.1,3,18.1,1.6
	c10.9-2.5,21.7-1.1,32.4,1.6c3.5,0.9,7.1,1.4,10.7,1.5c8.4,0.3,16.9-0.3,25,2.2c6.1,1.8,12.6,1.9,18.7,0.2c6-1.5,12.3-1,18.1,1.3
	c12.8,4.9,25.3,12.3,39.1,10.5c0.4,0,0.9,0.1,1.3,0.2c11.9,1,23.8,2.3,35.7-2c5.7-2,11.9-1.9,17.5,0.2c3.3,1.2,7,1.1,10.3-0.1
	c8.2-2.6,15.9-6.9,24.2-9c8.2-2,16.2-4,24.5-0.3c4.7,2.1,9.8,3.6,14.7,0.5c2.5-1.7,5.6-2.2,8.6-1.5c2.8,0.7,5.4-0.1,7.8-2.2
	c2.6-2.2,5.5-4.1,8.4-5.8c3.7-2.2,7.3-2.3,11,0.3c3,1.9,6.1,3.5,9.5,4.7c6.4,2.7,13.1,3.1,19.6,4.4c11.1,2.2,22.1,4.9,33.4,4.2
	c6.8-0.4,13.7-0.2,20.5-0.9c11.9-1.3,23.9-2.7,35.5-6.5c14.7-4.8,29.2-5.8,43.6,1.9c2.6,1.4,5.4,2,8.3,1.9c7.4-0.4,14.8-0.4,22-2.8
	c2.5-0.9,5.1-1.4,7.7-1.5c11.4-0.5,22.5-2.5,33.4-7.4c4-2,8.7-1.7,12.4,0.6c4.1,2.5,8.9,3.6,13.7,3.2c8.5-0.8,16.9-1.4,25.3-3.1
	c8.6-1.8,17.1-3.8,25.9-2.4c3.9,0.7,8.1,1.1,12-0.5c6.4-2.7,12.9-4.2,19.4-5.9c8.4-2.2,16.9-2.5,25.2,0.7
	c24.3,9.2,48.3,19.8,72.9,27.7c5.9,1.9,11.7,4.6,17.8,5.3c1-0.8,1.7-2.2,3-2.1c5.1,0.1,10.2-1.4,15.3-1.1c10.4,0.7,19-5.9,27.5-12.9
	C1422.6,247.3,1423.6,246.1,1422.7,244"/>
<path id="Path_93" class="st2" d="M1586,281.1c-2.5-4.7-6.3-7.6-9.3-11.7c-1.6-2.3-4.4-3.6-7.2-3.3c-8.6,0.6-16.6-1.9-24.1-7.8
	c-0.2-0.1-0.4-0.4-0.6-0.4c-6.2,0.4-10.9-4.3-16.2-7.7c-6.1-4-12.7-1.1-18.9,0.5c-5,1.2-9.9,1.6-14.9,2.1
	c-8.5,0.9-16.9,2.7-25.1,5.4c-8.2,2.7-16.1,2.5-24-1.9c-5.8-3.3-11.6-2-17.2,0.8c-7.5,3.7-14.9,7.3-22.5,10.7
	c-1.8,0.9-3.9,1-5.7,0.2c-4.7-2.1-9.8,0-14.6-1.8c-3.5-1.3-7-1.8-10.4-3.5c4.6-3.7,9.8-3.8,14.8-3.4c10.8,0.8,20.1-4.5,29.1-11.7
	c1.2-1.1,2.3-2.2,3.3-3.5c14.8-12.1,31.9-14.8,48.2-21c11.1-4.2,22.2-8.2,33.2-12.9c4.9-2.1,9.9-3.5,14.9-5.1
	c6.6-2.2,13-4.9,18.5-10.5c4.3-4.4,9.8-5.7,14.2-9.7c5-4.5,10.4-6.2,16.1-7.4c2.9-0.7,5.9,0,8.1,2c3.4,3.2,8.1,4.7,12.7,3.9
	c3.3-0.5,6.7-0.8,10,0.7c2.9,1.3,5.2,3.8,6.1,6.8c1.6,5,4.5,5.5,7.8,5.1c1.4-0.2,2.9-0.6,4.1,0.8c5,5.8,10.8,4.4,16.5,3.5
	c6.8-1,13.4-3.5,19-7.5c8.4-6,15.4-2.8,22.9,1.7c5.7,3.4,10.5,9,16.6,11.1c2.5,0.9,5,2.2,7.6,2.5c6.8,0.8,12.4,6.2,18.6,9.1
	c0.9,0.4,1.9,0.8,2.8,1.2c-4.4,5.4-10,7.3-15.5,8.6c-10.9,2.6-21.3,7.3-31.4,13.2c-5.6,3.3-11.6,5-17.2,8.2
	c-4.3,2.4-8.4,5.3-12.1,8.6c-4.3,4.2-9.9,6.7-15.9,7c-6.3,0.4-12.2,3.3-17.6,7.4C1603.9,277.1,1595.2,280.4,1586,281.1"/>
<path id="Path_94" class="st0" d="M1584.1,274.7c-1.2-1.5-2.7-2.5-3.8-4.1c-3.5-5.4-7.9-7.2-13.2-6.8c-6.1,0.4-11.8-1.5-17.3-5.2
	c-2.3-1.5-4.5-3.7-7.3-3.6c-3.5,0.2-6.6-1.4-9.3-4.5c-0.9-0.9-2-1.7-3.2-2.2c-5.6-3.5-11.3-1.9-17-0.8c-5.1,0.9-9.9,3.3-15.1,3.1
	c-9.6-0.3-19,2.7-28.3,5.4c-7.7,2.2-15.1,2.3-22.4-1.6c-6.7-3.5-13.3-2.5-19.7,0.7c-6.9,3.5-13.9,6.9-20.9,9.9
	c-1.6,0.8-3.4,1-5.1,0.7c-7.2-1.5-14.5-1.2-21.6-3.4c-1.4-0.4-2.8,0.1-4.3,0.2c-10.4-3.5-20.9-5.9-31.1-10.2
	c-17.8-7.5-35.9-13.3-53.6-21.2c-11.7-5.3-23.4-5-35.4-1.8c-8.7,2.3-17.1,7.1-26.3,5.7c-3.7-0.6-7.3-1.4-11.1-0.8
	c-12.3,1.8-24.5,4.8-36.9,5.8c-6.1,0.5-11.9,0.5-17.6-3c-4.2-2.6-8.4-2.4-12.7-0.7c-6.2,2.4-12.3,5.5-18.7,5.9
	c-12.3,0.6-24.4,4-36.6,5.5c-6.5,0.8-12.7,0.3-18.9-2.7c-8.3-4-17.6-5.4-26.7-3.9c-6.2,0.9-12.2,3-18.3,4.5c-12,3-24.3,4.9-36.6,5.7
	c-9.9,0.7-19.8,1.3-29.7-0.2c-8-1.1-15.9-3.5-23.9-4.5c-8.8-1.1-17.2-3.5-25-9c-2.4-1.8-5.6-2.1-8.2-0.7c-4.2,2-8.2,4.6-11.7,7.7
	c-1.7,1.6-4,2.2-6.2,1.6c-2.5-0.7-5.2-1.5-7.4,0.3c-5.9,4.7-11.7,2.4-17.4,0.1c-5.4-2.2-10.7-2.1-16.1-1.1
	c-10.9,2-21.3,7.1-31.9,10.9c-2.3,0.8-4.6,1.9-7,0.9c-7.2-3.1-14.6-2.5-21.9-0.7c-4.8,1.2-9.6,3.3-14.5,3
	c-10.8-0.6-21.5-1.5-32.3-1.6c-0.9,0-1.8-0.2-2.6-0.5c-6.6-3.2-13.5-4.7-20-7.9c-9.2-4.5-18.2-4.9-27.6-2.3
	c-2.5,0.7-5.1,1.6-7.8,0.5c-10.2-4.2-20.7-3.2-31.1-3.8c-3.5-0.1-7-0.6-10.3-1.5c-9.8-2.9-19.8-3.9-29.8-2.2
	c-6.1,1-12.1,1.6-18.1-0.3c-7.3-2.4-15-3.4-22.7-3c-13.2,0.9-26.3-1.5-39.4-3c-14.9-1.7-29.3-0.4-43.4,6.5c-7,3.4-14.8,4.8-22.5,4
	c-8.5-1-16.7,0.4-25,1.8c-12.1,2-24,2-35.9-1.6c-6.2-1.9-12.3-4.2-18.2-7c-2.8-1.3-5.4-1-8.3-0.2c-7.2,2-14.7,3.7-22,1.2
	c-7.5-2.6-14.7-1.2-21.9,0.9c-3.6,1-7.1,2.7-10.9,2.7c-4.1,0.3-8.2,1.6-12.2-1c-2.3,0.3-4.6,0.6-6.2,3.4c-1.7,0.6-3.5,1.2-5.2,1.8
	c-1.8-1.9-3.2-0.8-4.6,0.9c-5.5-0.2-11,0.5-16.3,2c-1.3-1.6-2.5-3.3-4.6-2.9c-3.7-2.8-7.8-3.4-11.8-5.1c-2.6-0.6-5.2-1.5-7.9-0.9
	l-11.8-0.1c-1.7-0.9-2.9-0.1-3.9,1.7l-9.7,3.8c-2.9-0.7-5.5,0.5-7.9,2.5c-6.3,1-12.5,2.3-18.8,1.7c-4.3-0.4-8.6,0.4-12.4,2.4
	c-3.8,1.9-7.1,5.5-11.4,6.2c-2.2,0.4-4.3-0.6-6.4,0.3c-5.5,2.5-11.3,2.6-17,3.6c-0.8-0.5-1.4-0.7-1.3,1c3.7,4.1,7.4,8,12.5,8.4
	c1.4,0.2,2.6,0.8,3.7,1.8c4.7,4,9.8,6.2,15.2,8c4,1.5,8.6,1,12.1-1.5c3.1-2.1,6.8-2.9,10.5-2.3c6.9,1.1,13.6,4,20.2,6.5
	c7.9,3.1,16.5,5.1,23.2,12.8c0.5,0.6,1.5,0.8,2.2,0.4c3.9-1.9,8.1-2.1,12.2-2.5c9.4-1,18.1,1.8,26.1,8.4c2.8,2.2,5.2,5,7.1,8.2
	c4.2,7.3,9.8,12.8,16.6,13.4c12.8,1.2,25.4-1,36.8-10c5.1-4.2,11.8-5.7,18.2-4.2c5.9,1.2,12,2.4,17.9,0.2c8.3-3,16.3-1.4,24.4,1.8
	c3.9,1.5,7.9,2.5,11.9,1.7c11.9-2.2,18.9,9.4,26.8,17.7c3.9,4.1,7.4,7.9,12.5,8c3.7,0.1,7.5-0.6,10.9-1.9c9.2-3.5,18.2-2.5,27.3,1.3
	c11,4.7,22.1,4.2,33.1-0.1c7.7-3,15.5-2.9,23.2-2.3c4.7,0.4,9.5,1.6,14.3,1.2c5.1-0.5,9.7,1.5,14,4.8c2.5,2,5.1,3.8,7.8,5.4
	c6.3,3.7,12.3,9,14.4,17.9c1.7,7.3,5.3,8.9,9.6,10.7c0.8,0.3,1.6,1,2.4,1.3c4.8,1.8,7.8,7.4,12,10.4c0.6,0.5,1.2,0.8,1.8-0.1
	c4-1.1,8-0.5,12-0.3c12,0.5,24,1.7,35.9,1c7.9-0.5,15.8-1.1,23.7-2.1c4.5-0.5,9.1-1,13.7-0.3c7.4,1.2,14.7,1.9,21.8-2.6
	c1.4-0.7,2.9-1.1,4.5-0.9c3.2,0.1,6-0.3,7.7-4.7c0.7-1.4,1.9-2.6,3.4-3.4c2.5-1.5,4.7-2.8,4.5-7.4c-0.1-1.5,1.1-2.8,2.1-3.8
	c2.9-2.9,6.1-5.1,9.8-5.6c5.8-0.8,11.5-1.5,17.3-0.4c1.5,0.3,3.2,0.3,3.5-2c0.9-6.7,4.7-6.8,8.4-7.3c4.3-0.6,8.4,1.8,12.6,2.3
	c1.6,0.2,3.3,0.7,4.7-0.8c3.9-4,8.3-3.1,12.4-1.1c2.5,1.2,3.9,0.8,5.8-1.3c3.8-4.3,8.1-6.9,13.2-5.6c1.1,0.3,2.2,0.1,3.2-0.4
	c5.3-2.9,10.9-1.2,16.2-1.4c4.9-0.2,10-1.4,14.9,0.1c0.5,0.2,1.3-0.4,1.8-0.9c2.7-2.5,5.6-2.3,8.8-1.6c4.1,1.1,8.5,1.1,12.6-0.1
	c5.4-1.9,10.7-1.9,16.1-2.2c5.1-0.3,10.2-0.7,15.1-2.4c6.2-2,12.8-2.6,19.3-1.8c6.3,0.7,12-1.6,17.6-3.6c5.7-2.1,11.1-2.1,16.8-1.9
	c1.5,0.1,2.7,2.3,4.3,1.3c4.3-2.6,7.8,0.9,11.3,2.9c2.6,1.5,4.8,2.3,7.4,1.2c2.2-0.9,4.3-1.9,6.7-1.4c8.9,2.1,18,2.3,26.8,5
	c2.6,0.8,4.8,0.1,7-2.3c3.6-3.9,8.3-4.9,12-1.8c6.2,5.1,12.7,5.5,19.4,5.3c1.8-0.1,3.3-1.4,3.5-3.3c0.7-4.5,3.2-4.9,5.7-5.1
	c2.9-0.2,5.6,0.9,8.2,2.6c4,2.5,7,7.3,10.8,9.6c6.2,3.6,12.6,6.7,19.7,3.1c3.6-1.9,7.6-2.8,11.6-1.6c9.3,2.8,18.7,5.8,28,8.7
	c2.6,0.8,5.2,2,7.7,0.9c9.4-4.1,19.6-4,28.3-11.3c5.8-4.8,12.6-0.6,18.8-3.2c0.6-0.2,1.5,0.5,2.1,1c2.6,2,5.1,1.6,7.9,0.5
	c4.8-1.9,9.5-3.6,14.6-3.6c4,0,8.1,1.5,12,0.3c8.7-2.6,18-3.1,27-1.6c8.2,1.3,15.8-0.5,23.4-3.4c2.1-0.8,4.3,1,6-0.3
	c3.3-2.4,6.8-2,10.2-1.7c8.5,0.6,17,0,25.3-1.8c7.7-1.6,15.5-1.1,22.8,2.9c4.7,2.6,9.6,3.5,14.4,5.5c1.2,0.5,2.3-0.1,3.5-0.7
	c4.5-2.6,9.1-4.9,13.5-7.8c6.6-4.4,13.3-7,20.7-4.3c4.7,1.7,9-0.3,13.2-3.1c2.5-1.7,5.2-3,8.1-0.6c4.5,3.7,5.1,3.7,8.8-1.5
	c3.3-4.5,7-7.2,11.9-6.4c4.3,0.7,8.7,0.5,12.9-0.5c8-1.8,16.2-1.4,24-5.5c5.3-2.8,11.2-1.8,16.8-1.8c2.4,0,4.7-0.9,6.4-2.4
	c12.7-10.2,26.2-16.2,41.3-13.5c1.5-3.3,4.5-3,6.5-5.2C1586.9,278.1,1585.5,276.4,1584.1,274.7"/>
<path id="Path_95" class="st0" d="M45.7,277.7c8.1-0.4,16.2-0.7,24.3-2c2.3-3.2,5.5-1.4,8.2-2.3c1.5-0.5,3.2-2.3,4.9-0.2
	c2.9,0.1,5.7-1.2,8.5-1.8c2-2,3.9-4.1,6.5-1.8c3-1,6.1-0.7,9.2-0.9c0.8-0.5,1.6-1.3,2.4,0c-2.5,3.8-6.3,4.9-8.9,8.6
	c-3.4,5-6.9,9.4-6.9,17.1s-6.7,11.8-12.3,8.1c-1.1-0.8-2.3-1.5-3.6-2.1c-1.7-0.7-2.6-1.8-2.9-4.5c-0.4-3.3-2.2-6.3-5-8.1
	c-7.1-5-14.5-8.4-22.5-9.5C46.9,278.2,46.3,278,45.7,277.7"/>
<path id="Path_96" class="st0" d="M1919.9,236c-5.6-3.6-11.9-4.6-17.7-7.6c-3.4-1.8-7.3-0.4-10.9,1.2c-1.4,0.6-2.5,0.3-3.9-0.5
	c-3.7-2-7.7-2.5-11.3,0.1c-1.2,1-2.7,1.5-4.3,1.4c-5.5-0.4-10.4,1.9-14.9,6.2c-4.4,4.2-9.6,6.2-14.5,8.8c-2.8,1.3-4.8,4-5.2,7.1
	c-0.5,2.9-2.3,4.2-4.1,5.2c-1.3,0.7-2.7,1.1-4,2c-2.3,1.5-3.9,0.6-4.6-2.5c-0.8-3.2-2.5-4.3-4.7-4.6c-5.2-0.7-9.6,1.2-13.1,6.7
	c-2.3,3.6-5.5,5.7-8.7,7.6c-2.7,1.6-5.2,3.4-6.4,7.6c-0.6,2.2-2,2.8-4,2.3c-7.4-1.8-14.5,0.1-21.3,4.3c-2.4,1.5-3.8,3.9-4.5,7.5
	c-1.6,7.6-5,9-8.5,4.2c-3.6-5-11.5-3.3-16,0.4c-4.1,3.4-9.5,3.2-14.3,3.8c-1.5,0.2-3.7-3.6-6.1-4.1c-1.1-0.2-2.2-0.7-3.2,0
	c-5.4,4.1-11,2.3-16.5,0.9c-2.6-0.6-5.4-1.3-7.9-0.5c-3.4,1.2-7,0.7-10.2,1.8c-7.2,2.3-14,0.9-21.2-0.3c-6.5-1.1-13.2,0.5-19.8,1.2
	c-2.8,0.4-5.3,1.7-7.2,3.8c-1.9,1.9-4,2.7-6.1,2.1c-6.2-1.6-12.8-1.4-18-7.8c-1.8-2.1-4.5-3.3-7.3-3.2c-6.9,0-13.3-2.3-19.8-4.9
	c-1.4-2.2-0.2-3.4,1.1-4.2c1.6-1.1,3.4-1.7,4.9-3c9.4-0.9,18.3-4.5,25.7-10.2c5.9-4.5,12.9-7.1,20.3-7.6c3.9-0.3,7.4-2.1,10.7-5
	c6.7-5.8,13.7-10.6,21.5-13.6c8.1-3.1,15.6-8.3,23.5-11.9c5.1-2.4,10.4-4.2,15.8-5.5c2.9-0.7,5.8-1.7,8.5-3c3-1.5,6-3.1,9.2-3.9
	c2.6-1.5,3.9-5.1,6.2-7c11.7-9.8,24.2-15.9,38.1-16c13.4-0.1,26.8-0.2,40.2,0.1c4.5,0.1,8.9,0.7,13.3,1.9
	c10.5,2.9,20.6,2.1,30.7-3.6c10.9-6.2,22.4-5.2,33.8-3.4c3.4,0.5,6.9,0.7,10.4,0.6c7-0.1,13.9,0.3,20.8,1.3c1.5,0.2,5.6,2.7,3-4.1
	c-0.9-2.4,1.8-1.1,2.8-1.7L1919.9,236z"/>
<path id="Path_97" class="st3" d="M0.1,583.3c0.8,0,1.5,0.1,2.3,0.2c15.2,5.5,30.9,4.8,46.3,5.6c7.8,0.3,15.5,2.1,22.6,5.3
	c7.1,3.3,14.3,3.2,21.6,2.9c10.9-0.6,21.9,0.6,32.4,3.5c5,1.4,10.1,1.2,15.2,1.3c15.3,0,30.7-1.6,46,1.1c11.6,1.9,23.5,2,35.2,0.1
	c6.3-0.9,12.6-1,18.9-0.2c5.2,0.8,10.4,0.9,15.6,0.4c8.2-1.1,16.3-0.2,24.5-0.8c5.1-0.3,9.6,1,14.4,3.6c7.5,4,15.7,5.9,24,4.2
	c3.1-0.7,6.1,0.2,9.1,0.3c5.3,0.2,10.7-0.9,16-0.8c19.2,0.5,38.5,0.9,57.7,2.4c7.2,0.5,14.4-0.2,21.5-1c9.9-1.1,19.8-1.1,29.7-0.1
	c1.3,0.3,2.6,0.3,3.9,0c2.6-0.8,4.8,0,7.2,1.4c4.2,2.5,8.8,2,13.2,0.8c2.6-0.8,5.4-1,8.1-0.6c3.2,0.9,6.6,0.8,9.7-0.3
	c5-1.9,9.7-0.9,14.3,1.9c4.9,3,10.5,4.4,16.2,4.1c11.3-0.5,22.5,2.2,33.9,2c7.7-0.2,15.1-3.4,22.7-2.9c8.8,0.7,17.6,1.2,26.3,3.3
	c2.5,0.6,4.9,1.3,7.4,1.1c13-1.2,25.8,2.3,38.7,3.9c10.7,1.4,21.4,3.5,32.2,1.6c4.5-0.8,9.2-0.7,13.7,0.4c3.2,0.8,6.3-0.8,9.4-0.6
	c6.3,0.3,12.6,1.1,18.9,0.9c13.1-0.4,26.3,1.2,39.4,1.1c7-0.1,14.1,1.5,21.1,2.6c14.8,2.3,29.6,3.6,44.3,6.6
	c3.8,0.8,7.8,1.2,11.7,1.2c17.1-0.3,34.1,2.2,51.2,2.1c5.7,0,11.5,0.7,17.3,0.6c11.6-0.3,23,0.2,34.3,4.5c11.2,4.2,22.8,4,34.4,2.9
	c10.6-1,21.3-1.4,31.9,0.9c3.4,0.7,7,0.7,10.4-0.1c3.1-0.8,6.3-0.9,9.4-0.3c7.9,1.6,15.9,1,23.8,0.9c7.8,0,15.4,1.7,22.5,4.9
	c6.1,2.6,12.6,4,19.2,4c8.6,0.2,17.2-0.8,25.8,0.9c0.8,0,1.5,0.2,2.3,0.4c9.9,4.5,20.2,4.3,30.4,4c8.5-0.3,16.9,2.2,25.4,2.4
	c1.8,0,3.7,0.2,5.5,0.3c19,1.2,38,1,56.9,4.9c13.6,2.7,27.4,4.5,41.2,5.4c9.3,0.7,18.6-0.3,28,0.8c5.6,0.7,11.6-1.5,17.2-0.3
	c8.2,1.7,16.7,1.4,24.5,6.1c1.7,0.9,3.5,1.4,5.4,1.5c14.2,1,28.2,3,42.1,6c7.9,1.7,16.1,0.5,24.1-1.1c8.6-1.7,17-1.1,25.6-0.1
	c8.7,1,17.1,3.9,25.7,5.6c1.9,0.4,3.9,0.5,5.9,0.2c16.7-1.9,33.2-0.4,49.3,6.3c1.1,0.5,2.3,0.8,3.5,0.8c10.7-0.3,21.3,0.8,32,1
	c8.1,0.1,16.1-0.3,24,2.6c9.8,3.6,20,3.7,30.1,5.1c15.4,2.1,30.7,4.3,45.9,8.5c4.2,1.2,8.5,0.8,12.7,0.4c9.1-0.8,18.2-1.7,27.3-2.4
	c4.3-0.3,8.3,0.7,12.5,2.2c9.6,3.6,19.5,5.6,29.4,2.6c5.8-1.8,11.5-0.9,17.2-0.1c0.5,0.2,1.1,0.3,1.6,0.3c12.8-1.4,25,3.7,37.5,5.8
	c7.8,1.3,15.7,0.7,23.4,2.3c1.1,0.1,2.2,0.4,3.2,0.9c-610.6,0-1221.1,0-1831.7,0.1c-2.8,0-3.3-0.9-3.3-4.5
	C0.1,680.5,0.1,631.9,0.1,583.3"/>
<path id="Path_98" class="st4" d="M1919.5,335.9V236c-0.2-1.6-1.2-3.1-2.7-3.8c-6.3-2.4-12.3-6.3-19.1-6.4c-2.7-0.1-5.4,1.9-8,0.9
	c-8.7-3.2-16.9,1.9-25.4,2.7c-1.7,0.3-3.3,1.2-4.5,2.4c-5.1,4.8-10.9,8-16.7,10.9c-3.8,1.8-6.6,5.1-7.9,9.1c-2,5.6-7,6.3-10.2,2
	c-1-1.4-2.1-2.7-3.5-3c-5.8-1.1-11.1,0.3-15.3,6.1c-2.1,3-4.8,5.6-7.9,7.6c-2.4,1.5-4.9,3-6.5,5.7c-2.1,3.5-4.5,4.3-7.5,4
	c-5.1-0.4-10.2,0.5-14.8,2.7c-4.4,2-8.1,4.7-9.6,11.4c-0.9,3.9-2.8,4.6-5.4,2.3c-4.7-4.3-9.9-4.2-14.7-1.6c-3.5,2-7.2,3.5-11.1,4.7
	c-2.4,0.9-5.1,0.5-7.3-0.9c-2.5-1.6-5.4-3.5-8.2-2c-5.7,3.1-11.2,2.4-16.9,0.7c-3.1-0.9-6.2-1.4-9.3,0.1c-2.4,1.2-4.9,1.2-7.4,1.2
	c-1.9-0.2-3.8,0.1-5.5,0.9c-3.4,1.8-6.8,1.6-10.2,0.2c-3.3-1.5-7-1.9-10.6-1.2c-3.6,0.9-7.3,1.2-11.1,1c-4.3-0.4-8.2,1.1-11.9,3.8
	c-1.5,1.1-3.1,2.3-4.9,2.1c-5.8-0.8-11.8-1.5-16.8-6.2c-3.4-3.1-7.7-4.9-12.3-5.1c-5.8-0.4-11.5-1.9-16.7-4.4
	c-5.4-1.7-10.7-0.5-16.2,0.5c-9.1,1.7-17.4,6.3-25.2,12.4c-2.4,2-5.5,3.1-8.7,3c-5.5-0.2-10.9-0.2-16.2,2.2
	c-3.9,1.9-8.1,3.1-12.4,3.6c-7.1,0.6-14.2,3.1-21.4,2.1c-5.8-0.8-10.7,1.2-14.8,7c-1.6,2.3-3.9,3.3-6,1.5c-3.5-3-7-2-10.3,0.1
	c-4.5,3-10,3.9-15.2,2.5c-4.9-1.3-10.1-0.4-14.3,2.5c-5.2,3.6-10.8,6.2-16.3,9.1c-1.5,0.9-3.3,1.3-5.1,1c-4.2-0.8-8.2-2.3-12-4.2
	c-8-4.2-17.2-5.3-26-3.3c-5.8,1.3-11.7,2.5-17.5,1.8c-7.6-0.8-15.1,0.2-22.7,1.8c-5.7,1.3-11.1,4.9-17,3.9
	c-5.1-0.9-10.2-0.2-15.3-0.8c-8.5-0.9-16.9,2.3-25.4,1.9c-5-0.3-10-0.2-14.9,1.5c-2.8,1-5.7,3.5-8.5,2.3c-4.3-1.9-8.5-1-12.8-1.2
	c-6.1-0.4-11.6,1.8-16.9,5.5c-2.7,1.9-5.7,3.3-8.9,4c-4.5,0.9-8.8,2.2-13.1,3.8c-2,0.8-4.1,1.3-6.1,0.4c-7-3-14.3-3.8-21.3-6.7
	c-7.7-3.2-15.3-3.9-23.1-0.9c-7.4,2.9-13.9-0.6-19.9-6.4c-4.5-4.4-9.1-8.2-14.7-9.1c-3.5-0.6-6.7,0.4-9,4.5
	c-0.9,1.7-2.5,2.9-4.4,3.3c-5.4,1.5-10.4-0.2-15.1-3.7c-5.2-3.9-10.2-3.2-15.1,0.9c-1.8,1.5-3.7,2.5-5.9,2c-7.9-2.2-16-2.5-23.9-4.2
	c-3.2-0.7-6.2-1-9.3,0.5c-1.7,1-3.8,0.9-5.4-0.1c-5.7-3.8-11.7-5-17.9-5c-6,0-11.8-0.1-17.8,2.2c-5.4,2.1-11,3.9-17,3.3
	c-5.7-0.6-11.4-0.2-16.9,1.2c-6.3,1.6-12.8,2.7-19.4,3.1c-3.8,0.3-7.7,0.1-11.4,1.2c-5.6,1.6-11.5,1.8-17.2,0.7
	c-1.5-0.4-3.1-0.3-4.5,0.4c-5.4,3.3-11.2,1.9-16.8,2.3c-6.6,0.4-13.2-0.5-19.7,1.5c-0.6,0.2-1.3,0.3-1.9,0.2
	c-4.7-0.8-8.8,0.8-12.6,4.6c-1.8,2-4.6,2.7-7.1,1.8c-3.5-1-7.5-1.8-10.6,0.3c-4,2.7-7.8,2.1-11.7,0.8c-2.9-0.9-6.1-1-9.1-0.5
	c-2.5,0.3-5.1,1.4-6.6,4.4c-1.8,3.6-4.1,4.4-7,4.3c-5.4-0.2-10.9-0.4-16.2,1.5c-4.9,1.8-9.4,4.7-11.4,11.8c-0.5,1.5-1.3,2.9-2.5,3.9
	c-2.2,1.9-4.2,3.9-6,6.1c-0.7,1.1-1.9,1.8-3.2,1.9c-4.4,0-8.6,1.8-12.7,3.7c-2.3,1-4.9,1.3-7.4,0.8c-13.1-2.4-26,0.1-39.1,0.9
	c-4.4,0.3-8.9,1.6-13.3,0.8s-8.9-0.6-13.4-0.7c-5.7-0.1-11.3,0.3-17-0.7c-2.6-0.4-5.2-0.4-7.8,0c-1.3,0.1-2.9,0.1-2.8,2.9l-1.5,0.1
	c0.4,0.5,0.7,1.1,1.1,1.6c4.6,5.7,6.1,12.5,4.5,20.6c-0.6,2.9,0.8,3.7,2.6,4.4c6.3,2.5,12.9,2.5,19.4,3.3
	c9.3,1.1,16.8,5.7,20.8,17.8c0.5,1.6,1.2,3.3,2.8,3.3c7.1,0.1,13.9,2.8,21,2.8c14,0.2,28-1.3,41.9,2.6c6.2,1.7,12.8,2.4,17.9,7.6
	c3.9,4,8,5.1,12.4,5.6c3.7,0.3,7.4,0.4,11.1,0c11.5-0.9,22.6,1.1,33.1,7.5c4.2,2.6,8.2,4.5,12.8,2.5c0.3-0.1,0.7-0.1,1,0
	c12.8,2,24.6,6.9,33.6,20.6c1.5,2.3,2.7,5.2,4.9,7c1.5,1.3,3.7,1.4,5.2,0.2c0.3-0.2,0.7-0.5,1-0.8c0.7-0.7,1.5-1.3,2.4-1.9
	c2.7-1.4,5.5-2.3,7.9-4.3c2.3-1.8,3.7-4.5,6.1-6.3c1.8-1.1,3.3-2.6,4.4-4.4c2.4-4.2,1.5-8.8,1.7-13.5c0.1-3.1,1.4-5.8,2.9-8.5
	c1.5-3,3.5-5.8,5.9-8.2c2.1-2,4.6-3.5,6.7-5.5s4.3-4.1,7-5.2c2.4-1,5-0.5,7.5-0.2c2.8,0.4,5.6,0.4,8.3,0.1c2.6-0.4,5.1-1.2,7.8-1.2
	c5.6,0,8.6,5.5,11.2,9.6c1.9,3.1,2.8,6.7,3.5,10.3l2,11.8c2.4,3.2,9.1,4.1,12.9,3.7c1.8-0.2,3.6-0.8,5.3-0.8
	c1.6-0.1,3.1,0.5,4.7,0.6c1.6,0,3.2-0.1,4.8-0.4c1.2-0.1,2.4-0.4,3.5-0.6c2.4-0.6,4.6-1.8,6.2-3.6c3.5-3.9,7.5-6,11.5-8.2
	c3.5-1.9,7.3-3.9,11.4-2.9c6.1,1.5,11.6-0.1,16.5-5.7c1.8-2.1,4.2-2.1,6.5-2.2c10-0.5,19.8,0.8,29.6,3.1c6.8,1.6,10.7-1,14-9.1
	c0.8-2.1,1.7-4.4,3.3-5.4c4.2-2.6,7.8-6.5,11.8-9.5c1.9-1.5,4.2-2.3,6.6-2.2c2.8,0.3,5.7,0.2,8.5-0.1c4.8-0.8,9.9,0.2,14.5-2
	c5.1-2.4,10.5-2.2,15.5-0.8c9.4,2.6,17.5,9.2,25,17.3c3.2,3.4,6.3,7.5,10.3,9.1c5.4,2.1,11.4,1.7,16.3-1.3
	c6.2-3.5,12.5-6.6,18.9-9.7c8-3.9,15.7-8.2,24.6-6.4c5.2,1.1,10.4-0.4,15.5-2.4c5.1-2,10.2-1.8,15.5-1.1c13.7,1.8,27,8,41,5.9
	c0.3,0,0.7,0.1,1,0.2c5.2,2.2,10-0.4,13.8-4.4c4.4-4.6,9.4-8.4,14.9-11.5c4.2-2.5,8.1-5.7,9.9-12c0.6-2.2,2-3.8,3.3-5.4
	c4.5-6,10.4-5.7,15.9-6.3c6.6-0.7,13.3,0.3,19.9,0c5.1-0.2,10.2,1,14.6,3.6c2.7,1.4,5.5,2.5,8.4,3.5c6.2,2.3,12.5,4.4,18,8.9
	c4.6,3.8,10.3,6,12.3,14.2c0.4,1.6,1.8,2,2.9,2.7c3.5,2.2,7.3,1.1,10.9,2.1c3.6,0.9,6.5-0.6,8.6-4.5c2.6-5,6.3-6.2,10.4-5.3
	c3.8,0.9,7.5,2,11.1,3.4c7.4,2.8,11.2-0.8,11.3-11.3c0.1-3.3,1-5.1,3.3-6.2c4.6-2.4,9.8-3.8,15-3.9c2.2,0,4.3,0,6.3-1.8
	c5.9-5.4,12.6-6.8,19.6-7.1c6-0.3,11.5,3.1,17.3,3.8c3.9,0.5,6.6,3,8.8,7.3c2.2,4.5,5.5,7.8,9.4,8c5.8,0.2,11.6,0.5,17.3-2.8
	c6.7-3.9,14.4-5.5,22.1-4.6c7.4,0.9,14.8,0.3,22.2,1.5c5.4,0.9,10.9,0.7,15.2,6.5c0.8,1.1,2.1,1.4,3.2,2c3.6,2,7.4,1.4,10.9,0.3
	c9-2.6,18.2-4.9,24.8-15c1.6-2.4,4-4.2,6.8-5c5.1-1.6,10.2-0.9,15.3-1c6.8-0.2,8.7-1.8,10.4-10.6c0.7-3.6,2.1-5.5,4.5-6.8
	c11.2-5.8,22.5-11.2,34.9-9.2c1.2,0.1,2.4,0.1,3.6,0c10.9,0.2,21.3,3.6,31.5,8.5c2,1.1,4.1,1.9,6.2,2.5c8.3,1.6,16.6,2.3,24.9,3.1
	c4.6,0.4,7.9-2,10.2-7.5c2.3-5.4,5.8-10,9.9-12.3c8.5-4.6,17.5-4.4,26.3-1.7c3.8,1.2,6,1,8.3-3.4c2-4,5.1-7.2,9.1-9.3
	c4.8-2.6,9.9-3.3,14.7-4.7v-3.5c0-1-1.3-0.9-2.1-0.8C1918.3,337.4,1919.1,336.7,1919.5,335.9"/>
<path id="Path_99" class="st5" d="M1919.5,341.5v0.6c-4.8,1.4-9.9,2-14.7,4.7c-3.9,2.1-7.1,5.3-9.1,9.3c-2.2,4.3-4.5,4.5-8.3,3.4
	c-8.8-2.7-17.8-2.9-26.3,1.7c-4.1,2.2-7.6,6.9-9.9,12.3c-2.4,5.5-5.7,7.9-10.2,7.5c-8.3-0.7-16.7-1.5-24.9-3.1
	c-2.2-0.6-4.3-1.4-6.2-2.5c-10.2-4.9-20.6-8.3-31.5-8.5c-1.2,0.1-2.4,0.1-3.6,0c-12.4-2-23.6,3.4-34.9,9.2c-2.4,1.2-3.9,3.2-4.5,6.8
	c-1.7,8.8-3.6,10.4-10.4,10.6c-5.1,0.1-10.2-0.5-15.3,1c-2.8,0.8-5.2,2.6-6.8,5c-6.6,10.1-15.7,12.4-24.8,15
	c-3.6,1-7.3,1.7-10.9-0.3c-1.1-0.6-2.5-0.9-3.2-2c-4.3-5.8-9.8-5.6-15.2-6.5c-7.4-1.2-14.8-0.6-22.2-1.5c-7.7-0.9-15.4,0.7-22.1,4.6
	c-5.7,3.3-11.5,3-17.3,2.8c-3.9-0.2-7.2-3.5-9.4-8c-2.2-4.3-4.9-6.8-8.8-7.3c-5.8-0.7-11.3-4.1-17.3-3.8c-7,0.4-13.7,1.7-19.6,7.1
	c-1.9,1.8-4.1,1.8-6.3,1.8c-5.2,0.1-10.4,1.4-15,3.9c-2.3,1.1-3.2,2.9-3.3,6.2c-0.2,10.6-3.9,14.1-11.3,11.3
	c-3.6-1.4-7.4-2.5-11.1-3.4c-4.1-0.9-7.7,0.4-10.4,5.3c-2.1,3.9-4.9,5.5-8.6,4.5c-3.6-0.9-7.4,0.1-10.9-2.1
	c-1.1-0.7-2.5-1.1-2.9-2.7c-1.9-8.2-7.6-10.4-12.3-14.2c-5.6-4.5-11.9-6.6-18-8.9c-2.9-0.9-5.7-2.1-8.4-3.5
	c-4.4-2.6-9.5-3.8-14.6-3.6c-6.6,0.3-13.3-0.7-19.9,0c-5.5,0.6-11.4,0.4-15.9,6.3c-1.3,1.7-2.6,3.2-3.3,5.4c-1.8,6.4-5.7,9.5-9.9,12
	c-5.5,3.1-10.6,7-14.9,11.5c-3.8,4-8.5,6.6-13.8,4.4c-0.3-0.1-0.6-0.2-1-0.2c-14,2.1-27.3-4.1-41-5.9c-5.3-0.7-10.4-0.9-15.5,1.1
	c-5.1,1.9-10.3,3.4-15.5,2.4c-8.8-1.9-16.6,2.4-24.6,6.4c-6.3,3.1-12.6,6.2-18.9,9.7c-5,2.9-11,3.4-16.3,1.3
	c-4.1-1.6-7.1-5.6-10.3-9.1c-7.5-8.1-15.6-14.7-25-17.3c-5-1.4-10.3-1.6-15.5,0.8c-4.7,2.2-9.7,1.3-14.5,2c-2.8,0.3-5.7,0.3-8.5,0.1
	c-2.4-0.1-4.7,0.7-6.6,2.2c-4,3-7.6,6.8-11.8,9.5c-1.6,1-2.5,3.3-3.3,5.4c-3.3,8-7.2,10.7-14,9.1c-9.8-2.3-19.6-3.7-29.6-3.1
	c-2.3,0.1-4.7,0.1-6.5,2.2c-4.8,5.6-10.4,7.2-16.5,5.7c-4.1-1-7.9,0.9-11.4,2.9c-3.9,2.2-8,4.3-11.5,8.2c-1.7,1.8-3.8,3.1-6.2,3.6
	c-1.2,0.3-2.3,0.5-3.5,0.6c-1.6,0.3-3.2,0.5-4.8,0.4c-1.6-0.1-3.1-0.6-4.7-0.6c-1.8,0.1-3.6,0.6-5.3,0.8c-3.8,0.4-9.6-1.1-12-4.3
	c-1.2-1.6-1.2-3.6-1.7-5.4c-0.5-1.9-0.8-3.9-1.2-5.8c-0.7-3.5-1.5-7.2-3.5-10.3c-2.6-4.1-5.6-9.6-11.2-9.6c-2.6,0-5.2,0.8-7.8,1.2
	c-2.8,0.3-5.6,0.3-8.3-0.1c-2.5-0.3-5.1-0.8-7.5,0.2c-2.7,1.1-4.9,3.2-7,5.2s-4.6,3.6-6.7,5.5c-2.4,2.4-4.4,5.2-5.9,8.2
	c-1.5,2.7-2.8,5.4-2.9,8.5c-0.2,4.6,0.7,9.2-1.7,13.5c-1.1,1.8-2.7,3.2-4.4,4.4c-2.4,1.8-3.8,4.5-6.1,6.3c-2.4,1.9-5.2,2.8-7.9,4.3
	c-0.9,0.5-1.7,1.2-2.4,1.9c0,0.1,0,0.1,0.1,0.2c9.7-2.9,19.4-5.2,29.4-3.7c2.8,0.4,5.6-0.2,8-1.8c12.2-7.9,25-9.5,38.2-6.3
	c2,0.6,4.2,0.4,6.1-0.5c8.8-4,17.9-6.2,27-8.3c8.7-2.1,17.2-1.7,25.4,4.3c4.5,3.5,9.8,5.8,15.4,7c7.7,1.5,15.3,3.3,22.8,5.6
	c10.7,3.3,21.3,7.2,26.5,22.6c0.8,2.5,2.9,2.7,4.7,3.3c7.7,2.6,15.5,4.6,22,11.5c4.3,4.5,9.6,2.6,14.4,3c1,0.1,1.6-1.4,2.3-2.3
	c4.8-6,10.3-9.5,17-9.6c15.5-0.2,30.8,3.4,46,6.6c3.3,0.9,6.7,1.3,10,1.4c5.6-0.1,10.1,2.9,13.7,8.7c1.3,2.5,3.6,4.3,6.4,5.1
	c5.1,1.2,9.8,3.8,14.5,6.7c2.7,1.7,5.4,4.3,8.1,4.3c6.8,0,13.5,1,20.2,1.9c9.6,1.2,19.1-0.9,28.6,0.7c8.3,1.4,16.8,2.5,23.7,9.7
	c5.1,5.3,10.7,8.9,17.1,10c4.1,0.7,8,4,12.1,3.1c7.7-1.7,15.4-0.2,23.1-0.7c5.3,0.5,9.9-2.8,14.8-4.4c16.4-5.6,32.3-13.1,48.6-19.1
	c11.3-4.2,22.8-7.6,34.1-12.2c6.6-2.7,13.7-4.3,20.6-6.3c10.7-3,21.6-5.4,32.5-7.3c25.9-4.7,51.4-12.4,77.5-15
	c13.7-1.4,27-6.3,40.7-7.3c10.9-0.8,21.8-3.8,32.5-7.1c26.1-8.1,52.7-12.6,79.1-19c8-2,16.2-2.9,24.1-5.6c2.4-3.3,4.7-3.9,7.4-2
	c12.5-1.7,25.1-2.5,37.6-4.1c2.1-1.7,4-5.5,6.5-0.7c4-0.4,8-0.3,11.8-2.4c0.7-1.2,1.8-2.3,3.1-2.9c4.3-2.5,9-1.8,13.5-3.5
	c1.8-0.7,4.3-0.9,5.8,1.8c0.5,0.2,1.1,0.2,1.5-0.2c0.9-3.6,3.4-3.5,5.5-4.1c6.6-1.7,13.4-0.5,20.1-2.5c3.7-1.1,7.6-1.2,11.4-1.9
	c2.3-0.6,4.7,0.5,5.8,2.6c0.5,0.2,1.1,0.1,1.6-0.3c0.8-2.7,2.3-3.8,4.3-3.3c4.4,1.2,8.4-1.3,12.7-1c1,0.1,2.5-0.5,2.5-1.2V342.1
	C1919.5,341.8,1919.7,341.6,1919.5,341.5"/>
<path id="Path_100" class="st0" d="M1775.5,471c3.4-0.7,6.9-1.4,10.3-1.9c3-0.4,5.9-0.8,8.9-1.1c4-0.4,8.1-0.5,12-1.1
	c5.4-0.9,10.8-2.2,16.1-3.7c3.2-1,6.4-1.7,9.7-2.3c2-0.3,4.1-0.1,6.1-0.2c5.1-0.3,9.6-2.6,14.5-3.9c6.6-1.7,13.4-2.7,20.2-2.9
	c4-0.2,7.9-1.3,11.9-1.5c4.7-0.3,9.4-1.1,14.2-1.5c2.9-0.2,5.8-0.1,8.7-0.2c1.6,0,11.5-2.1,11.5-0.1c0,0.1,0,0.2,0,0.3
	c0,0.1,0.1,0.1,0.1,0.2c-0.1,0.6,0,1.2,0.1,1.8c0.2,0.6,0.2,1.1,0.2,1.7v66.8c-1.6-0.6-3.2-1-4.3,1.4c-0.6,1.2-1.7,1.2-2.7,1.2
	c-7.5,0.2-14.6,2.9-21.8,5.4c-5.7,2-11.2,4.6-17.2,1.5c-4.6-2.4-4.8-3.2-3.5-9.5c1.2-6,1.1-12-2.6-16.7
	c-12.4-15.7-32.7-22.9-48.9-11.2c-6.9,5-14.1,9.2-22,10.7c-2.6,0.5-5.2,0.3-7.7-0.5c-7.2-2.3-14.3-3.6-21.3,1.3
	c-2.1,1.4-3.8,3-4,6.4c-0.1,1.9-1.1,3.6-2.6,4.8c-4.2,3.8-9.4,6.3-14.9,7.1c-2.5,0.4-5,1.1-7.4,2c-4.2,1.5-5.5,4.9-4.3,10.5
	c0.7,3,0.4,5.8-1.4,7.6c-3.4,3.5-6.9,6.5-11.5,6.5c-8.6,0.1-17.1-1.9-25.7-2.4c-8.1-0.5-15.5,1.5-22,8.5c-5.3,5.8-11.7,5-17.8,4
	c-7.8-1.3-15.6-2.4-23.3,1c-0.7,0.2-1.3,0.4-1.9,0.8c-9.7,7.9-20.8,9.1-31.6,11.4c-3.4,0.7-7,0.3-10.4,1
	c-10.9,2.2-20.7,8.4-30.3,15.2c-5.2,3.7-10.8,6.4-15.6,10.9c-3.3,3.3-6.4,6.7-9.3,10.4c-2.3,2.7-4.9,2.7-6.8,0.2
	c-4.3-5.6-9.7-7.6-15.1-8.4c-7.3-1.1-13.9-4.2-20.4-8.5c-12.9-8.5-26.5-9.4-40.5-6.7c-3.8,0.7-7.5,1.4-11.1,3.3
	c-3.4,1.8-6.9,1-10.3,0.5c-8.2-1.2-16.1-0.2-23.6,4.3c-2.2,1.3-3.9,1-5.8-0.7c-10.3-9.5-21.7-14.7-34.1-15.8
	c-0.8-0.2-1.5-0.4-2.2-0.8c19.7-9,39.7-16.4,59.7-24.3c9.5-3.8,19.4-5.8,28.7-10.1c10.9-4.9,22.1-7.4,33.2-10.7
	c17.2-5.2,34.8-7.8,52.2-11.4c12.4-2.5,24.7-5.3,37.1-7.8c12.6-2.6,25.4-2.8,37.9-6.3s25.3-3.1,37.8-6.7
	c15.5-4.4,31.1-8.8,46.8-12.4c9.7-2.2,19.4-4.4,29.2-6.5c9.8-2.1,19.6-4.2,29.5-6.3C1762.3,474.1,1768.9,472.4,1775.5,471"/>
<path id="Path_101" class="st6" d="M1919.9,521.4c0,69.5,0,139,0.1,208.5c0,3-0.4,3.6-2.7,3.6c-27.4-0.1-54.9-0.1-82.3-0.1
	c-3.2-0.6-6.4-0.9-9.7-0.9c-13.2-0.1-26.4-0.6-39.3-5.1c-1.5-0.5-3-0.7-4.5-0.6c-6.5,0.2-13.1-0.3-19.5-1.5
	c-3.2-0.6-6.3,0.4-9.4,1.2c-9.7,2.4-19.4,1.3-28.8-2.3c-7.1-2.7-14.1-2.7-21.3-1.8c-16.6,2.1-33.2,3.1-49.6-2.9
	c-7-2.6-14.3-2-21.4-3.2c-14.1-2.5-28.4-2.9-42.3-7.5c-3.1-1-6.4-1.5-9.7-1.4c-13.6,0.5-27.2-1.4-40.8-0.9
	c-3.5,0.1-6.9-1.6-10.2-2.9c-6.5-2.8-13.5-4.2-20.6-4.1c-2.6,0-5.2-0.2-7.8-0.6c-4.2-0.5-8.4-0.8-12.7,0.3
	c-6.3,1.5-12.6-0.7-18.7-2.7c-6.1-2-12.4-1.6-18.4-3.3c-9.9-2.7-19.5,1-29.2,1.4c-7.5,0.4-15,1.3-22.4-1.1c-6.4-2.1-13-1.7-19.5-2.9
	c-5.8-1.2-11.6-1.9-17.5-2c-2.6,0-5.2-0.9-7.2-2.5c-0.6-0.5-1.4-0.9-2.2-1c-11.4-2.2-22.7-6.1-34.3-3.6c-3.6,0.8-7.2,0-10.7-0.8
	c-2.7-0.7-5.4-0.9-8.1-0.5c-9.9,1.6-19.7,0-29.6-1.8c-8.8-1.6-17.8-1.4-26.6-3.6c-8.2-2-16.4-2.4-24.7-2.9c-15-1-30.1-0.8-45-2.8
	c-9.8-1.3-19.6-1.2-29.3-1.4c-3.6-0.1-7.2-0.8-10.6-2.1c-6.5-2.3-13.4-3.4-20.4-3.3c-7.8,0-15.7,0.6-23.5-0.7
	c-4.7-0.8-9-3.4-13.6-4.8c-6.9-2.3-14.1-3.4-21.4-3.3c-7.2,0.2-14.4,0.4-21.5-0.9c-2-0.4-4.2-0.3-6.2,0.2
	c-6.4,1.7-12.9,0.7-19.2-0.5c-8.3-1.6-16.5-0.7-24.7-0.1c-13.6,1.1-27,0.4-40.2-4.4c-5.5-2.2-11.5-3.2-17.4-3.1
	c-15.7,0.7-31.4-0.2-47-1.1c-16.5-1-33.1,0-49.5-3.5c-11.3-2.4-22.7-3-34-4.9c-10.9-1.9-21.8-3.9-32.8-3.6
	c-14.4,0.3-28.7-0.9-43.1-1.3c-7.9-0.2-15.8,1.1-23.8-0.4c-4.6-0.9-9.3,0.6-14,0.8c-12.8,0.4-25.4-1.9-38-4
	c-7.4-1.2-14.7-2.8-22.1-2.1c-8.5,0.8-16.6-2.4-25-3.1c-8.6-0.8-17-1.6-25.7,0.3c-9.8,2.2-19.8,1.5-29.6,0.3c-5.3-0.8-10.6-1.2-16-1
	c-5.2,0.3-10.5-1.1-15-3.7c-4.7-2.7-9.5-2.7-14.7-2.3c-9.3,0.8-18.8,3.2-27.9,1c-12.6-3-25.1-3-37.6-2.8c-8.5,0.1-16.9,2.2-25.4,1.6
	c-15.1-1.1-30.2-1.3-45.3-2c-8-0.3-16.1-0.2-24.1,0.3c-6,0.3-12-0.6-17.9,0c-9.1,0.9-17.7-1.6-26-6.5c-1.8-1-4-1.5-6.1-1.4
	c-9.1,0.3-18.3-0.5-27.4,0.7c-7.8,1-15.7-0.5-23.5-0.7c-11.1-0.3-22.1,2.6-33.3,1.9c-4.5-0.1-8.9-0.5-13.3-1.2
	c-16.1-2.8-32.2-1.6-48.3-1c-3.9,0.3-7.9-0.1-11.7-1c-12.5-3.5-25.4-4.8-38.3-3.9c-8.9,0.5-17.3-2.3-25.5-6.1
	c-2.5-1.2-5.2-1.9-8-1.9c-4.1,0-8.3-0.5-12.4-0.5c-9.5,0-18.9-1.8-28.3-2.2c-5.1-0.2-10.2-1-14.4-5.6V260.8c1.1-2,2.4-1.5,3.7-0.6
	c3.1,1.2,6.4,0.2,9.5,0.9c1-0.3,2,0.1,2.6,0.9c1.4,1.6,3.1,1,4.7,1.3c3.5,0.7,6.1,4.3,9.5,5.2c3.6,0.9,6.8,2.8,9.5,5.4
	c1.2,1.2,2.5,2.6,4.2,1.5c0.7-0.5,1.3-0.1,2,0c2.3,0.2,4.4,0.5,6.5,2.2c1.4,1.1,3.3,0.8,4.9,1.3c5.9,1.7,11.3,4.8,15.8,9
	c1.8,1.8,3.1,4.1,3.7,6.5c1.2,3.7,7.1,7.9,10,7.2c2.5-0.6,4.4-3.3,4.8-6.9c0.7-9.3,5.4-17.8,12.8-23.5c1.5-1.2,3.2-2.1,4.6-3.6
	c0.5-0.4,0.9-0.9,1.3-1.5c3.3-6.9,8.5-9.7,14.1-11.7c0.4-0.1,0.8-0.2,1.1-0.2c1.5-0.4,3-0.1,4.5-0.3c1.2,0,2.4-0.8,3.7-0.4
	c3.7,0.4,7.3,2.9,11.1,2.1c0.4-0.1,0.8,0,1.1,0.1c2.6,4.1,6.7,4.3,9.9,6.9c3.6,2.6,7,5.7,11.1,6.8c2.1,0.5,4.1,1.5,5.8,2.9
	c4.8,4.3,10.3,6,15.8,7.7c2.6,0.8,5.1,1,7.3-0.7c7.9-5.8,15.9-3.6,23.8-0.5c5.7,2.3,11.6,3.9,17.2,6.4c5.5,2.3,10.7,5.2,15.7,8.5
	c1.7,1.1,3.3,0.9,5.1,0.5c7.3-1.7,14.7-2.5,22-0.2c8.4,2.6,16.1,7.2,21.8,16.5c6.8,11.4,15.8,13.7,26.1,12.6
	c9.8-1,18.7-5.2,27.2-11.3c4.9-3.5,9.9-4,15.2-3.2c1.6,0.2,3.3,0.3,4.9,0.6c6.9,1.5,13.6,0.2,20.4-1.5c5.2-1.3,10.4,0,15.5,2
	c4.8,1.9,9.7,3.6,14.8,2.9c8.2-1.2,14.9,3.1,20.8,10.2c3.2,3.8,6.9,6.6,9.9,10.7c3.5,4.6,8.1,5.3,12.8,4.4c3.8-0.7,7.5-1.8,11.2-2.9
	c7.3-2.1,14.5-0.9,21.6,2.1c12.2,5.1,24.2,4.9,36.3-0.3c1.4-0.7,2.9-1,4.5-1.1c3.7,0.1,7.4-0.2,11.1-0.7c2.7-0.5,5.5-0.3,8.1,0.6
	c4.3,1.5,8.7,1,13,0.9c4.6-0.1,9.2,1.4,12.8,4.3c4.2,3.2,8.7,5.4,12.8,8.8c5.9,4.7,10.1,11.1,12.2,18.3c0.7,2.5,1.6,4.7,3.5,5.5
	c7.1,2.8,13.3,7.8,19,14.2c0.8,1.5,1.7,2.9,2.8,4.1c2,2.1,3.2,4.9,3.4,7.8c0.3,3.6,1.5,7.1,1.1,10.9c-0.3,1.8,0.7,3.5,2.4,4
	c3.9,1.6,8,1.9,12,2.3c4.2,0.5,8.4,0.7,12.5,2.3c5.3,2.1,10.2,5.4,12.6,12.3c2.7,7.8,7.4,7.5,12.3,8.4c12.4,2.3,24.8,0.8,37.3,1.3
	c8.8,0.3,17.4,2.7,26,5.4c4.3,1.4,8.7,3.3,12.2,7.7c2.9,3.7,7,2.4,10.6,3.1c4.6,0.9,9.1-0.8,13.6-0.5c11.5,0.7,22.7,3.3,33.1,10.4
	c1.2,0.8,2.6,1,4,0.7c10.1-1.3,19.5,2,28.5,8.1c5.8,3.9,10.2,10.1,14.6,16.1c2.2,3,4.1,3.9,6.7,1.6c6.5,0.7,12.6-3.5,19.1-3.6
	c2.8,0,5.6-0.5,8.5,0c3.5,0.6,7.2,0,10.2-1.9c12-7.4,24.5-8.9,37.4-6.2c2.7,0.6,5.5,0.3,8-0.8c10.4-4.5,21.1-6,31.9-8
	c7.5-1.4,13.8,0.6,20.2,4.9c10,6.8,21.1,8.1,31.9,10.6c7.5,1.8,14.9,4.2,21.8,8.9c4.2,2.9,7.6,6.9,9.5,11.7c1.3,3.5,4.1,6.2,7.6,7.3
	c7.2,2.7,14.5,4.8,20.7,11.3c4.2,4.4,12,3.6,16.1-0.7c5.2-5.5,11-8.4,17.8-8.4c15.4,0.1,30.5,3.4,45.7,6.7c3,0.6,6,1.5,9.1,1.4
	c6-0.3,10.8,3.1,14.8,8.7c1.7,2.4,3.6,4.4,6,5c5.3,1.4,10.3,3.8,14.7,7c5.7,4.3,11.9,4,18.1,4.9c5.1,0.7,10.2,0.7,15.3,1.5
	c1.9,0.4,3.9,0.4,5.9,0.1c9.6-1.8,19.1,0.4,28.5,2.3c5.3,1,10.2,4.7,14.4,9.1c5.2,5.4,11.1,6.9,17.1,9c6,2.2,11.9,2,18.1,1.4
	c4.9-0.5,10,0.6,15,0.3c4.6,2.8,9.6,1.5,14.4,3.3c6.5,2.5,13,5.1,18.6,10.4c4.1,3.8,7.8,4.4,12.5,1.9c6-3.3,12.6-3.6,19-2.7
	c4.8,0.6,9.6,0.1,14.2-1.5c18.4-5.7,36.5-5.2,53.6,7.1c3.1,2.4,6.7,4,10.5,4.7c6.4,1.1,12.7,2.3,18.4,6.8c0.8,0.5,1.5,1.2,2.2,1.8
	c2.2,2.6,4.4,2.2,6.4-0.3c6.1-7.7,13.6-12.4,20.8-17.9c8.1-6.2,16.9-10,25.3-15.2c3.8-2.3,8-2.6,12.2-2.7c8.6-0.2,17-3.2,25.5-4.8
	c2.6-0.5,4.9-2.3,7.3-3.9c9.9-7,20.4-7.5,31.2-5.2c2.8,0.6,5.6,0.7,8.5,0.5c3.4-0.3,6.5-1.8,8.8-4.3c6.9-7.3,14.8-9.2,23.3-8.6
	c8,0.6,16,2.2,24.1,2.4c3.5,0.1,6.6-1.5,9.5-4.1c2.1-1.9,2.9-4.4,2.4-7.9c-0.9-6.5,1.4-10.9,6.2-12.6c3.2-1.1,6.6-2,9.9-2.5
	c3.4-0.6,6.5-2.4,9.5-4.5c2.1-1.4,3.5-3.6,3.9-6.2c0.2-1.9,1.2-3.6,2.6-4.9c4.3-3.3,8.9-6,13.9-5.6c4,0.3,7.9,1.1,11.6,2.4
	c4.2,1.5,8.2,0.2,12.2-1.3c5.2-2.1,10.2-4.8,14.8-8.1c16.7-11.3,32.4-8,47.3,6.2c0.3,0.3,0.5,0.6,0.8,0.8c6.4,5,8.3,12.6,7.2,22.1
	c-0.6,5.6,0.2,6.9,4.2,8.3c4.5,1.6,8.7-0.3,12.8-1.8c7.2-2.6,14.3-5.1,21.7-5.9c1.3-0.1,2.5-0.7,3.3-1.7
	C1916.8,517.8,1918.5,518.2,1919.9,521.4"/>
</svg>
