<?xml version="1.0" encoding="UTF-8"?><svg xmlns="http://www.w3.org/2000/svg" width="1920" height="768" viewBox="0 0 1920 768"><g id="a"><path d="M275.38,704.56h0l-.83.49h-8.27c0,1.88,1.53,3.54,2.22,5.28.63,1.6,1.67,3.96,2.64,5.35.69.9,1.74,1.74,2.5,2.43,1.53,1.46,2.43,2.64,3.75,4.38,2.43,6.74,9.31,6.95,15.29,6.95.76,3.13-10.98,7.37-9.59,9.17,4.03,5.14,10.08,6.67,1.32,10.77-1.53.69-4.52-2.5-5.77-3.47-2.57-2.02-7.37-5.49-7.37-9.17-6.18,0-12.58,5.35-19.32,5.35,0,6.95,4.93,20.08,7.92,26.4" fill="none" fill-rule="evenodd" stroke="#fefefe" stroke-miterlimit="10"/><path d="M.63,97.74c5.63,2.36,15.29,2.5,21.61,3.47l12.16,1.88c3.47.56,5.98-.9,8.96-.9,1.25,5.07,4.73,8.69,10.49,8.27l19.04-1.18c7.99-1.95,8.89,4.66,11.33-5.21,4.59,0,7.78,3.13,12.02,4.17,1.67.42,3.4,1.32,5.14,1.25,3.47-.14,3.89-1.74,7.92-.49,3.47,1.04,9.94,5.21,10.42-.76.21-2.22,7.99,0,9.17.49,1.53.14,2.43,1.25,4.1.76,1.25-.35,1.6-.83,2.92-.49.69,3.47,3.68,3.54,3.68,7.23,0,2.5-.63,5.07-.63,7.5v5.49c0,5.28-3.89,2.99-5.56,6.32-.69,1.39.21,2.71-.35,4.17-.49,1.32-2.02,2.64-2.85,3.89,1.32,3.68-.83,5.49-1.53,8.82-.49,2.22-1.04,4.59-.56,6.95.69,3.47-.28,7.37-.28,10.91,0,1.11.69,6.46,1.6,6.46h0l-.49-.07" fill="none" fill-rule="evenodd" stroke="#fefefe" stroke-miterlimit="10"/><path d="M1847.02,261.17h0c.14,0,.35.07.49.07,3.61.56,7.92-2.43,11.6-2.43,1.88,0,2.02,1.11,3.47,1.67,1.95.76,5.42-.9,7.92-.42,2.22.49,2.02,1.67,3.34,3.13.21.21,5.21-1.25,7.09-.83,3.54.69,7.09-2.15,10.42-3.61,1.18-.21,2.15-.69,3.27-.28,1.95.69,2.92,1.6,5.14.97,6.32-1.67,12.58-.83,18.97-2.08l4.31.35" fill="none" fill-rule="evenodd" stroke="#fefefe" stroke-miterlimit="10"/><path d="M1923.03,592.69h0l-10.08-4.31c-2.71,0-5.91-2.5-7.5-4.38-1.95-2.36-5.49-1.11-7.99-3.54-2.22-2.22-13.76-8.62-16.75-7.64-2.57.76-7.16,10.63-8.62,13.27-3.47,6.46-8.55,4.93-14.94,3.54-3.61,0-10.01-4.93-13.62-6.32-.28-.07-2.08-1.11-2.22-.69-2.08.49-8.27,7.78-10.63,9.45-4.45,3.2-10.42,9.24-13.48,13.76-1.74,2.57-2.99,2.36-5,.42-2.78-2.78-5.28-4.38-9.17-4.66-3.68.83-8.76,1.67-11.53-1.32-1.18-1.25-6.25-7.09-7.71-7.09-.35,1.53-6.11,5.42-7.5,6.81-3.06,3.13-7.37,3.54-10.08,6.18-1.88,1.74-2.64,4.52-5.63,4.52s-5.07-1.32-7.57-2.85c-2.22-1.39-9.94-1.04-12.51-.69-1.95.42-3.82-2.43-5.14-3.4s-4.1-1.6-5.77-1.67c-4.59-.21-11.6-.42-15.56,2.08-2.64,1.67-4.59,4.38-7.23,5.91-2.64,1.53-7.64-1.6-7.99-4.31-.28-.14-.69-.21-.9.07-2.92.35-2.78,3.13-4.93-.76-1.18-2.15-1.88-4.52-1.88-7.02,0-5.35,3.96-7.16,5.35-11.67,0-5.42-.56-5.84-4.17-10.08-3.06-3.61-8.55-1.53-12.99-1.53-3.96,0-3.13-2.22-3.27-5.7-.07-2.15-.97-12.3-2.43-13.27-4.79-3.2-9.73-5.63-15.22-7.71-5.21-2.64-10.01-7.37-15.98-7.85-2.22-.21-2.22-2.36-3.06-3.89-.97-1.81-5.14-2.99-6.81-4.1-3.2-2.08-3.47-8.69-4.86-12.09-1.67-4.03-5.63-7.23-8.89-10.14-3.4-2.92,1.74-2.99,2.71-4.73,2.71-2.99,2.36-6.11,1.67-9.8-.83-4.59,2.99-4.93,4.38-8.27,3.06-7.44,2.5-12.99-4.17-17.58-5-3.47-4.66-4.79-2.08-9.94l3.68-3.13h0l.21-.07" fill="none" fill-rule="evenodd" stroke="#fefefe" stroke-miterlimit="10"/><path d="M275.17,704.7c1.46.35,2.29.49,3.75.49,1.6,0,3.06.07,4.45.9,1.18.76,3.13,1.32,4.52,1.32,2.43.07,6.53.76,8.96,1.32,3.47.76,5.49,4.86,9.31,5.84,4.38,1.11,9.87,2.22,13.13,5.49.63,1.95,2.29,3.34,1.6,5.42-.28.83-5.77,6.25-2.71,7.02,1.74.42,3.34.07,5.14.76,2.92,1.18,4.17,2.29,5.63-1.18,1.53-3.54,4.86-8.48,7.92-10.77,3.68-2.78,6.6-7.99,8.89-12.09,2.02-1.32,2.57-3.96,4.24-5.21,1.25-.97,6.74.56,9.03-.07,6.53-1.67,12.65-4.59,19.25-6.18,7.23-1.74,15.01-2.15,22.37-2.15,3.27.07,5.77,0,8.2,2.15,5.07,4.38,7.5,2.78,13.27-.07,3.61-1.81,4.24,2.92,5.63,4.66,1.18,1.53,6.05-1.11,7.99-.83,2.22.28,2.5,2.85,5.28,1.39,8.96-4.66,9.66,1.04,17.09,3.06,4.1,1.32,10.49,3.54,14.24.69,3.4-2.57,2.15-7.92,7.23-8.82,3.4-.63,5.98.28,8.82-2.29,8.82-7.85,15.22,11.33,21.26,0,2.43-2.08,4.03-6.25,6.95-7.44,4.52-1.88,10.91-.21,15.5-1.46l7.99-2.22c.9-.28,6.67-1.32,6.67-2.36-2.85-.69-5.14-7.57-4.52-10.08.69-2.78,5.98-12.02.83-13.06-3.54-.69-7.5-2.29-11.19-1.81-3.4.42-10.28,1.04-11.95-2.64-2.22-3.27,2.71-8.34-2.43-12.09-1.11-12.44,1.46-7.99,8.55-2.22,6.25,5.07,14.45.35,17.58-5.98,3.2,0,4.73,5.07,9.59,2.57,7.99-4.1,8.69-7.92,8.69-16.33,0-2.43-2.57-9.73,1.18-8.2,3.47,1.46,8.96.76,10.35-3.4,1.25-2.36,2.15-5.14,2.36-7.78.14-2.08-1.18-2.5-2.64-3.54-1.18-.83-2.36-8.96.69-8.62,2.71.28,8.69.9,11.26.35,2.5-.56,1.53-2.99,2.71-4.66,1.67-2.43,5.98-3.96,6.46-6.6.21-1.25,1.6-6.39,3.2-6.39,0,7.5,12.02,9.31,16.68,12.37,3.2,2.08,4.38,5.14,4.59,8.96.35,6.81,2.64,2.36,7.85,3.61,3.54,1.32,6.81,3.54,10.42,4.45,6.11,1.53,7.02-12.09,11.05-5.98,2.36,3.47,8.27,4.31,9.03,6.74,3.27,9.59,4.73,9.73,14.73,10.14,3.4.14,14.31,2.85,15.5,6.6h.35l5-21.82c1.81-3.96.76-9.1,2.15-13.2.42-1.25,9.38,2.22,10.77,2.92,4.86,2.43,4.17-1.32,6.53-4.66.9-1.32,11.33,3.2,13.34,4.38,3.82,2.15,2.71,7.5,7.99,7.5,7.44,0,8.69,5.91,12.37,11.19,3.4,4.93,13.62-1.74,16.68-4.86,4.93-2.57,20.5-3.27,17.02-13.2-2.36-6.67-2.64-10.42-.83-17.37,1.04-3.82,3.96-5.98,4.79-10.35.83-4.24,2.5-2.15,4.79,1.04,4.24,5.84,7.09,6.11,13.48,4.17,5.35-1.67,10.35,2.99,14.8,4.59l7.02,5.98c2.71,2.29,10.98-1.18,14.24-2.15,2.85-.83,10.01-6.18,10.77-9.17,1.18,0,2.64,2.15,4.03,2.57,1.88.56,3.4-.56,5-.21,0,3.27,1.88,5.35,5.21,5.35,0,7.09-3.82,12.79-.42,20.5,4.31,10.49,7.3,19.11,18.69,23.69,2.36.97,4.17.63,4.79,3.4.49,2.29,6.05,3.34,7.99,5.35,3.4,3.4,4.79,1.39,4.24,7.3,1.39,6.95,7.44,2.43,10.98,2.08.9-.07,8.13-2.71,6.53-.76-2.08,2.64-2.78,11.81,1.81,12.02l7.64.28c2.02.07,4.03-1.32,6.05-1.32.63,2.57,7.23,8.27,9.38,10.21,4.45,4.17,6.25,6.05,13.06,3.54,3.13-.21,5.14-1.95,8.34-1.18,4.31,1.04,7.92,6.88,12.92,4.45,3.06-1.46,6.18-4.03,9.73-4.17,3.68-.14,12.51-.42,15.5-2.36,4.66-2.85-2.78-10.49-2.99-13.69,1.32-4.66,5.98-5.07,7.09-10.42.69-3.61,1.81-4.79,3.54-7.92,1.81-3.27,1.67-11.67,4.38-13.27,2.43-1.46,3.96-1.46,5.63-3.96,1.53-2.29,1.39-5.7,2.22-8.27,1.67-5.91,2.43-8.13,8.34-9.94,6.53-2.02,14.59-8.48,19.73-12.85,3.4-2.92,15.84,7.09,19.66,8.69,4.17.76,6.95.97,10.14,3.96,4.59,4.38,10.08,8.06,16.95,6.81,6.74-1.18,17.16-.14,23.63,1.74,3.27.63,7.23.76,10.28,1.46.83,2.5,1.18,7.23,4.24,8.41,2.99,1.18,6.67,1.18,9.94,2.22,6.81,2.22,9.24,1.39,15.15-2.15,4.38-2.64,11.19-5.56,16.47-3.27,2.99.42,6.18,4.03,8.69,4.03.49,0,1.11-5.98,1.88-7.3,1.32-2.29,4.45-4.31,5-6.88.76-4.03.63-8.76,1.53-12.65.83-3.34,2.64-4.73,5.49-2.57,6.95,5.21,9.03-.69,16.33-1.53,3.2-.35,5.84,1.74,8.82,2.22l9.87,1.46c6.32.97,15.08,3.82,21.33,2.92,1.39-5.49,1.67-13.55,2.29-19.39l1.04-9.59c.49-4.38,2.64-5.49,5.14-8.62,7.3-5.21,8.34-4.24,16.75-3.54,3.34.28,9.31-1.88,7.99,2.78-.76,2.92.83,6.18,3.54,7.3,5.14,2.15,7.85,4.17,11.53-.49,2.85-3.75,11.33,2.15,13.9,3.54,4.31,0,7.37,3.13,11.26-.76,5.98-5.98,7.85-8.13,16.54-8.13,4.52,0,9.38-2.02,12.99,1.6,2.29,2.29,14.38,2.78,16.75.42,2.99-2.99,2.64-4.17,6.95-3.96,2.57.14,5.63-4.73,7.23-6.53,2.85-5.56,11.4.69,15.15-4.79,2.36-3.47,3.89-6.05,8.06-6.74,1.53-.28,4.24-3.4,5.56-4.52,2.22-1.88,3.47,6.46,4.52,8.2,2.5,4.03,12.51,4.24,16.75,4.24,4.03.42,10.42.14,13.13-3.27,2.92-3.68.21-5.42.21-9.31,0-5.7,5.91-10.01,5-15.15-.42-2.29-1.18-5.7-2.15-7.78-2.15-4.45.97-4.24,3.75-6.67,3.2-1.53-1.39-4.79,1.81-7.99,5.77-5.77,6.05-7.64,5.7-15.91-.28-5.35-1.32-9.38,5.07-6.53,4.73,2.08,6.6-.76,10.56-2.64,5.7-2.78,12.16.63,18-1.11,6.88-2.02,6.11,2.57,12.58,4.73,1.74.28,3.75.63,4.93,2.02.28.35,2.43,2.85,2.71,2.92.07.14.21.21.42.21.21-.28.35-8.27.76-9.73.69-2.43,3.34-5.42,5.07-7.3,2.36-2.5,4.1-8.82,8.13-8.82,2.36,0,2.99-.07,3.68-2.29.69-2.29,2.5-4.03,3.47-6.25,1.81-1.32,5.84-2.15,7.02-3.4,2.92-3.13,4.93-9.38,9.87-10.7,2.99-.76,6.95.28,10.28-.63,3.4-.97,5.77-2.43,7.09-5.84,2.08-5.21,4.86-5.07,9.87-5.7,5.14-.69,6.11,1.6,9.87,3.96,5.63,1.81,16.19,9.17,17.23,15.15.56,3.4-1.04,7.16,0,10.7.35,1.11,1.67,1.18,2.36,2.15.83,1.25,1.11,2.64,1.6,4.1,0,6.32,8.89,4.38,8.89,9.17,0,3.68-.07,4.79.97,5.77h0c.63.56,1.67,1.11,3.27,2.15,3.54,2.22,6.05,3.34,9.38,0,1.39-1.39,3.2-3.61,4.93-1.46,4.45,5.63,20.92-6.25,26.13-7.3,3.96-1.53,8.06.49,10.98,2.92,3.13,2.57,3.61,4.17,7.99,2.5,2.02-.76,5.28-.56,6.74-2.02,6.18-6.05-2.29-13.9,1.32-21.05,3.13-4.52,2.92-5.28,3.13-10.7.07-1.88,3.61-4.79,4.73-6.32,2.08-2.99,4.93-6.81,2.36-10.49-2.64-3.82-6.6-8.2-6.88-13.2,2.71-5.07,6.32-4.24,11.12-7.09,3.47-2.02,4.73-5.77,8.76-4.59,6.74,1.95,11.67-2.5,17.51-1.11,6.25,1.46,12.3,4.03,18-1.18l7.64-4.73c-.35-2.78,1.39-5.63,3.82-7.5,2.78-2.08,7.5-6.53,9.45-8.69,2.08-2.29,5.49-3.34,6.67-6.6.21-.63.35-1.39.42-2.15l6.25,2.08c4.1,2.22,7.16,4.38,10.63,7.23,5.49,4.38,4.86-1.18,7.78-1.88,2.5-.63,6.81,2.57,9.1,3.4,5.49,2.08,2.92,8.13,3.82,13.06.97,5.28,2.5,5.07,7.5,5.07,4.59,0,1.95-2.15,3.68-4.59,1.11-1.6,4.79-2.29,6.53-3.4,4.45-2.92,5.98-22.31,4.86-26.96-.69-2.36-.42-5-1.04-7.37-.97-3.89-3.47-6.11-3.47-10.42s2.64-6.95,2.08-11.33l-10.35-6.74c.76-1.39,1.95-2.64,2.43-4.03.35-1.04,0-2.15-.56-3.06-1.04-1.6,2.29-5.7,3.06-7.3,1.46-3.06-2.99-3.75-2.92-5.63.21-3.61,5.84-.97,7.37-.49,3.89,1.18,2.64-6.05,4.03-8.62,1.11-2.08,4.45-2.78,5.14-4.17.63-1.39-.83-4.79-1.04-6.53-.14-1.67-.28-3.4-.49-5.07h0c-5.21-.97-9.87-5.35-15.43-6.11-3.2.63-15.84.69-15.91,4.17-.07,2.36-1.11,2.85-3.27,2.43-2.43-.49-5.35.35-6.6-2.22-2.29-4.79,0-3.54-6.05-1.81-1.74.49-3.68.63-5.49.69-6.46.28-13.06-.63-19.32-1.74-4.24,1.32-11.67-1.25-15.01-4.1-3.61-3.13-8.41,2.99-12.58.69l-9.24-5.21c-3.4-1.88-9.17-1.46-13.06-1.46-3.75-1.25-4.52-3.06-8.82-3.06-3.13,0-5.84-2.36-8.76-3.4-6.32-2.29-15.29.21-19.94-4.38-3.34-3.34-8.06-4.45-12.16-6.74-2.36-1.04-2.99-3.4-5.98-3.34-3.06.14-4.52.49-7.37-1.04-4.66-2.43-11.19.69-16.26-2.71-4.38-2.99-1.53-4.1-7.78-2.5-3.47.83-10.14-2.15-11.6-5.42-.21-.49-.14-2.29-.63-2.36-1.25-.14-6.67,0-7.64.49-5.21,1.18-13.48,4.66-17.65,1.11-4.52-3.82-10.14-3.47-15.29-5.98-2.92-1.39-7.71-1.39-9.8-3.2-2.99-2.57-8.96-2.29-8.96-7.3-3.82,1.32-3.4,3.2-8.13,2.85-7.85-1.18-16.26-2.08-24.25-2.08-1.88,0-3.96,1.6-6.18,1.81-3.82.42-9.03.49-12.85.14-5.21-.49-11.4-1.88-16.54-1.53-3.47,0-13.69-.28-16.47-2.36-3.47-2.64-2.22-4.79-7.23-4.79-2.85,0-3.4,2.43-6.6.76-3.27-1.67-5.28-5.21-8.62-6.67-5.42-2.36-12.79.56-18.55-1.18-1.67-.07-3.82-5.14-5.07-6.74-1.25-1.6-6.46.63-7.92,1.32-7.37,3.54-18.48,5.14-26.54,6.53-5,.9-9.87-2.15-14.52-2.15-.56,1.18-1.6,2.71-2.99,2.85-8.06,2.92-13.41.14-18.14-6.11-1.04-1.39-.97-3.47-1.81-4.38-2.02-2.22-4.79-3.13-7.37-4.45-2.85-1.53-6.39-5.14-7.92-7.99-2.02-3.82-8.34-2.92-11.81-7.44-1.81-1.6-1.11-5.7-.49-7.71,1.18-3.4-1.04-4.79-3.47-6.6-4.73-3.47-12.58-11.19-18.21-12.58-3.75-.9-7.3,3.96-12.65,2.5-5.42-1.46-11.74.35-17.58-.97-5.35-.42-5,2.5-9.8,2.78-4.73.28-6.46-4.03-9.38-6.53-2.08-1.81-2.5.63-1.88,2.36.9,2.5-5.49,2.43-6.74,2.43-1.11,4.52.14,9.45-.56,14.24-.42,2.92-12.09,7.02-14.94,8.48l-10.42,5.42-.07-.07c0-5.35,7.64-8.62,11.12-12.09,2.36-2.36,12.23-9.17,12.79-11.47.76-3.06-.63-6.46.14-9.31-.69-1.67-5.7-6.6-5.7-7.16-1.04-.9-.14-4.03-.35-5.35-3.2-1.6-8.96-.9-12.65-2.22-4.17-1.46-10.42,5.63-14.8,2.43-2.36-1.74-8.76-.28-11.67-.07-4.45,0-10.28-1.32-14.38.83-3.68,1.95-7.44,5.98-11.95,5.35-1.67-.28-2.43-2.92-4.17-3.89-2.22-1.25-5.77,1.88-7.99.49-1.32-.83-1.88-2.57-3.68-2.29-4.17.63-8.96,4.79-12.51,2.85-2.71-1.53-5.42-1.18-8.41-1.6-9.24-1.46-17.79.21-26.89.49-6.6.21-13.83.83-17.72-5.07-3.06-4.52-.56-5.56-5.63-2.71-3.27,1.81,1.53,7.23-7.5,5.91-3.2,0-3.06-1.74-5,1.11-1.18,1.74-2.02,4.59-3.54,5.91-4.03,3.4-8.2,2.15-10.49-2.22-2.22-4.17.14-2.36-5-2.36-.83,3.34-2.43,5.07-6.05,5.07-1.46,0-8.13-.07-8.76-.76-3.34-3.96,1.39-8.48,3.61-12.37.83-1.46-.63-1.25-.83-2.29h-.14c-.49,1.39-5.07,7.99-6.46,8.55-.35.14-.42-6.39-.49-7.85-.07-1.74-1.6-5-1.39-5.98,3.27,0,3.61.35,6.74-.83,1.39-.49,5.98-2.92,5.98-4.59-3.13,0-6.18,2.43-9.52,2.43-4.03,0-2.92-5.84-3.61-5.63-2.64.69-2.5,2.71-5.91,2.36-6.32,1.95-8.76.42-14.59-.97-2.99-.69-8.62-4.79-9.03-7.5-.21-1.39-3.68-4.45-4.86-3.89-4.45,2.15-5.49-1.25-6.74-4.93,0-2.78.97-4.73-2.43-4.24-3.06.49-1.81-.9-2.92-3.27-.63-1.32-1.6-1.18-1.6-2.99,0-1.32,1.11-3.47.35-4.38-1.6-1.95-5.63.83-6.88-3.27-.49-1.6-2.5-1.46-3.89-1.67-4.86-.76.14-4.86.49-7.09.42-2.36,1.18-3.47,2.08-5.7,2.02-5.14-1.6-3.27-4.03-3.27-1.74,0-1.11-2.15-2.5-2.5-3.61-.9.28-6.18-7.16-4.59-2.5,1.6-5.28,2.36-5.28,5.98h-.21c-.69-2.85-.9-3.82-.76-7.16.21-4.17.35-5.28-4.31-4.38-1.67.28-3.06-1.25-4.59-1.25-1.18,3.54-3.27,4.93-4.93.9-.69-1.81-2.85-10.21-3.47-10.28-1.88-.28-2.92-3.47-3.27-5.14-1.6,0-10.49,2.57-11.53,3.75-1.18,1.46-2.71,10.35-1.6,11.74,2.36,2.99,3.4,5.28-.76,7.44-1.46.76-4.93.07-4.79.69.21.69,1.39,1.46,1.25,2.22-.14.69-4.93,1.11-6.18,1.95-3.13,2.78-3.54,6.95-8.96,5.21-3.13-1.04-6.67-3.61-9.73-.56-2.08,2.08-4.66.21-7.09.21-.42,2.02-.07,4.45.35,6.32,4.24,1.04-.9,3.82-1.46,5.56-.42,1.25,1.11,1.95.9,2.71-.49,1.67-6.46,8.69-7.99,8.69-3.47,0-6.18-1.46-9.94-.35-3.06,1.25-4.1,4.66-.9,6.25.83.42-.21,5.07-.49,6.11-1.25,3.68-12.02,11.12-15.5,7.37-4.73-5.14-5.7,1.46-9.94.69-2.71-.49-4.1-.69-6.88.07-1.95.56-4.31,4.73-5.56,2.99-1.04-1.53-3.68-4.31-5.42-5-3.96-1.6-5.7-.97-5.7-6.25h-.21c-.35.69-2.22.83-2.85.76l-8.48,2.36c-5.42,1.46-.56,3.13-4.93,4.79-7.37,2.85-15.77,14.66-23.97,12.23-.76-.21-3.34-2.36-3.47-2.36-1.18,4.79-6.18,4.45-7.85,6.88-3.06,4.45-7.71-3.61-8.41,2.36l-3.13.69c-2.57.97-5.21,1.74-7.99,1.11-2.02-.42-1.46-2.64-1.81-4.24-1.74-.42-3.96,2.08-5.63.9-2.08-1.46-1.18-2.71-1.88-4.66-.9-2.71-9.66,1.88-10.35-3.2-2.92-.69-3.89.42-7.02.14l-6.81-.63c-2.22-.21-2.02,2.78-4.52,1.67-2.36-1.04-2.85-.21-3.27,2.43-.76,4.03-6.74-4.24-7.37-4.86.28-2.5,3.82-9.17,3.34-10.91-1.11-.28-3.34-.14-4.45.14-.69,3.68-.97,6.46-5.14,5.84-.28-.07-3.4-6.53-3.4-7.64,0-4.31-.83-2.29-2.57-.14-1.32,1.53-4.79,4.93-6.46,1.95-1.74-2.99-4.93-5.14-6.39-8.13-1.67-3.34-3.47-2.22-6.18-3.75-.49-.28-2.36-2.22-2.57-1.88-.42.63-1.04,2.43-.76,3.13,1.25,3.47,1.04,5.42-1.39,8.41-2.43,3.89-8.06,6.39-12.51,5.56-4.79-.9-4.1,2.02-8.48,3.89l-5.63,2.43c-2.36,1.04-7.71-.14-9.38,1.04s2.15,2.78.56,3.75c-3.82,2.36-8.41.42-12.44,1.46-2.22.56-7.44,3.27-9.17,3.2-6.05,4.03-12.51,9.94-19.66,7.71-1.95-.63-4.1.35-5.7-.14-3.06-.9-.14-3.89-1.39-4.73-.63-.42-6.39,1.74-8.27,1.46-2.15-.28-11.67-3.96-12.3-2.57-1.74,3.82-3.06.69-6.53.21-1.18.42-3.82-.42-5.07-.56-.21-.9-2.5,4.03-3.27,4.52-1.88,1.18-4.79-.21-6.6-.97-.9-.35-8.2-6.05-8.27-6.32-2.08-.76-1.6,2.15-4.38.07-1.74-1.25-3.61-1.81-5-3.61-1.74-2.29-6.74-7.02-8.76-4.03-1.39,2.08-.07,6.25-2.08,8.2-2.64,2.5,5.14,6.11-.07,9.52-2.22,1.46-3.47-1.67-6.46-.21-3.82,4.66-5.28,1.88-9.1.83-4.38-1.18-6.05,1.53-9.31,2.71-4.52,1.67-11.88-6.32-16.05-.35-2.22,3.27-5-5.14-7.78-5.14-1.95,0-5.42,2.92-6.81,1.04-2.08-2.85-4.52-3.89-7.99-4.03-1.39,0-5.84-1.11-6.88-.49-1.67,1.04-2.99,2.5-5,3.54-3.13,1.67-8.69-1.81-10.14-4.38-1.53-2.57-.35-4.24-.9-6.6-.83,0-1.6.21-2.43.21-2.43,7.3-11.88-3.27-12.65-7.02-.63,0-2.29,3.54-4.38,3.68s-3.68.42-5.77-.28c-1.67-.56-3.4.97-5.14,1.11-7.3,2.43-9.73-1.25-16.54,4.52-5.14,4.31-10.21,2.29-15.84.76-3.13-.83-6.95-1.11-9.94-2.15-.28-.07-5.7,7.71-10.21,7.71-3.54,0-6.11-7.85-7.44-7.64-.07.56-2.15.83-2.57.83-5.7-.56-3.27-6.81-9.73-.42-3.96,3.96-6.32-2.64-6.32-6.05-2.29,0-2.78,3.96-5.14,2.64-3.13-1.74-2.15-.76-3.82,1.67-.69,1.04-2.71-.49-3.61-.49-1.04,0,.42,5.56.76,6.32.83,1.6-4.59,2.78-5.77,2.64-2.57-.28-7.23,1.04-8.76-.83-1.04-1.32-2.5-2.36-3.68.49-2.36,5.91-8.89-5.49-11.05-7.09-2.64-.42-4.17-2.5-7.3-2.5-2.71,0-3.68,2.5-5.49,2.15-4.93-.9-7.02,1.46-7.02-5.14l-.07-.07c-1.25,0-8.06,4.31-8.06.28-3.4-1.46-5.49,6.95-8.2,5.91s-7.71-3.4-10.08-5.07c-.56-.42-1.74-2.36-1.95-2.29-1.67.76-3.4,1.18-5.14,1.67-8.06,5.07-3.75-3.06-10.98-2.57-2.99.21-1.95-.97-3.68-1.32-.28-1.11-2.99,1.88-3.27,2.29-1.32,1.53-1.81,1.81-3.68,1.18-2.64-.9-5.28-4.66-7.16-5.07-.07.14,0,.14-.14.21-.49,2.5-2.08,7.02-4.31,8.13-3.68,1.81-4.24,5.07-9.17,5.07-3.34,0-2.71.42-5.07,2.36-2.02,1.67-5.63,1.46-7.64-.35-.21-.21-1.32-.9-1.39-.56-.69,0-1.53.97-2.15,1.39-2.99,4.03-5,5.7-8.89,1.88-1.95-1.95-4.31.28-7.09-.35-2.5-.49-2.02-2.15-3.61-3.06-.14-.07-4.52,2.64-6.25,2.64-1.95,0,3.61,2.92,3.89,4.38,1.25,6.18-6.05,6.25-5,10.21.56,2.22-1.39,5.21.21,6.74,2.08,2.15,3.68-2.29,4.66-2.5.69,2.08,1.67,3.13,3.96,4.03,1.53.56,7.23.97,7.02,2.22-.14.97-.83,3.06-1.46,3.82-.83,1.04-3.4,1.11-4.66.69-2.5-.76-4.86.35-7.09-.63-1.32-.56-2.29-2.92-2.57-3.06-.56,1.67-2.5,5.56-4.03,6.74-2.92,6.18-3.54,11.6-4.52,18.34-.76,5.14-2.92,9.52-4.17,14.31-.14.49-1.67,3.54-1.81,3.06h0c.21.69.83,2.57,1.32,2.85,1.32.76-.83,3.89-1.18,4.38-.83,1.18.07,4.52-.42,6.25-1.67,5.91-4.45-4.52-8.89-2.92-5.56,1.95-10.98,12.16-15.29,16.47s-1.04,3.96-1.25,8.06c-.07,1.95-6.32,5.21-7.64,7.3-1.11,1.81,1.46,5.42-.56,5.7-3.89.49-1.53,1.6-1.6,4.59-.07,2.02-12.85,4.03-15.01,4.38l-2.5-1.18c-2.43-1.53-3.82-4.45-6.95-5.35-3.75-1.11-8.41,1.04-11.53-.35-2.5-1.11-1.53-2.22-5.14-.83-2.85,1.11-6.81-.07-5.14,4.59,1.74,4.86-.97,6.67-2.5,10.56-.97,2.36,4.93,8.2,4.03,11.6-.28.28-.63.56-.97.83-2.5,1.88-3.54,4.1-5.14,6.32-2.22,3.2.21,8.06.49,11.67,2.57,1.25,4.59.63,7.02,2.43,2.15,1.6,3.82,4.17,6.74,4.59,2.29.35,3.13-2.64,4.38-4.03.97-1.04,9.31-3.68,9.87-2.92,1.88,2.78,1.18,3.34,4.17,5.56,1.67,1.25-.28,8.89-.28,11.33,0,1.95,1.53,3.47,1.6,5.35.14,2.64-.83,4.86-2.22,7.09-.9,4.31,1.67,7.09.97,11.4-.28,1.67-.49,3.2-.21,4.93.42,2.5,3.34.83,5.42,2.64,4.03,3.4,5.07,3.2,6.18,8.69.83,4.1,5.98,6.39,5.98,10.14,3.2,5.35,8.89,13.48,16.47,8.82,5.35-3.34,6.74-7.5,14.04-5.07,0,1.25-3.75,3.82-3.89,6.67-.07,2.64.76,4.79.83,7.3.14,2.85-2.43,7.02-2.85,10.28-.56,4.45-1.53,7.71-1.53,12.44.97,7.44,2.02,18.55,9.38,22.58,5.7,3.06,3.2,10.77,11.67,11.4,4.24.35,5.98,4.45,7.78,7.71,1.25,2.29,3.06,4.52,4.79,6.53,1.74,2.08.83-3.13.97-3.82.49-2.92,2.99-4.52,5.98-4.38,1.81.14,4.03,7.16,4.24,8.62.56,2.99,1.25,5.98,4.86,5.07,2.71-.69,3.34,1.46,4.66,3.4,1.74,2.43,8.48-.28,11.74.42,2.78.56,6.6,12.37,5.14,15.56-1.53,3.27-4.24,6.46-6.11,9.66-2.57,4.24-2.22,7.23-3.13,11.81-.35,2.22,1.67,6.53,2.02,9.24.63,4.66,1.11,5.77,5.84,5.28,3.47-.42,5.35,8.48,7.64,10.98,1.81,2.02,8.34,4.66,10.98,3.89,3.2-.9,2.57-6.95,5.7-7.3,7.02-.63,7.85-.56,13.62-5.28,4.45-3.61,5.21-7.23,11.33-8.55,3.27-.35,7.16-.14,7.71-4.17.28-2.02-1.95-5.49-.28-6.81,5.7-4.59,5.49-13.48,7.02-19.53.83,0,1.95,3.75,2.71,4.52,1.39,1.39,3.68,1.04,4.86,2.5,5.35,6.74,3.96,11.53,14.24,13.06,3.34.49,1.6,4.86,2.36,7.57.83,2.99,5.14,4.86,6.53,8.13.83,2.29,2.43,2.78,3.61,4.59.97,1.39-2.36,7.92-2.36,10.14,0,7.3-.63,10.77-6.74,15.01-2.64,1.81-4.24,3.68-6.67,5.63-2.64,2.08-6.74,2.85-8.76,5.91-1.88,3.47-6.18,9.8-9.52,11.88-7.78,4.79-15.91-3.2-20.22,8.69-.83,2.36-3.61,7.85-6.53,7.85-2.29,0-9.87-8.89-11.33-10.56-7.44,4.24-10.08,13.9-17.86,18.34-5.21,2.99.07,7.57-5,9.31-2.5.9-3.68-.63-5.63,2.29-1.88,2.78,1.53,3.96,1.74,6.6.07.49.35,1.67.07,2.43-1.04,2.92-2.02,4.45-2.43,6.74-3.75,1.04-7.09-7.16-7.44-1.39-.21,2.85-.35,6.67-4.03,7.16-5.49.69-3.82,5.14-3.2,9.38.49,2.85,2.5,3.27,4.24,5.14.97,1.11.97,6.67,1.81,8.55.9,1.6,2.64,2.29,3.82,3.47,1.95,1.95,3.89,5.49,5.56,7.99.69,1.04,4.86-1.67,6.6-2.08,1.53-.35,6.25-2.15,2.71-3.68-3.75-1.6-1.74-5.7-1.46-9.1.42-4.86-2.36-7.92-2.36-12.37.35-3.54,1.18-3.47,2.99-6.11,1.25-1.81,1.46-4.24,2.08-6.18l4.79,1.88c1.67.63,1.88,8.34,2.22,10.35.42,2.5,1.6,4.45,2.08,7.02.83,4.79,4.38,2.85,6.18,6.6.69,1.39,1.32,3.13,2.92,3.82,1.67.76,3.82.97,4.86,2.57,3.13,2.22,7.57,11.74,11.47,11.12,4.59-.69,6.81,1.95,11.67-.49,3.89-1.95,3.89-3.13,7.5-.63,4.79,3.27,6.81,7.5,10.01,12.09,3.13,4.45,8.34,9.24,12.37,12.85,2.22,3.89,5.63,4.73,5.84,9.94.21,7.16-2.57,11.95-3.34,18.62-.76,6.25,3.06,10.35,3.06,15.84h0l-.69.07Z" fill="none" fill-rule="evenodd" stroke="#fefefe" stroke-miterlimit="10"/></g><g id="b"><circle cx="1062.55" cy="133.42" r="3.72" fill="#fff" stroke-width="0"/><circle cx="1215.84" cy="177.45" r="3.72" fill="#fff" stroke-width="0"/><circle cx="945.71" cy="301.89" r="3.72" fill="#fff" stroke-width="0"/><text transform="translate(956.11 306.61)" fill="#fff" font-family="ClearSans, &apos;Clear Sans&apos;" font-size="16"><tspan x="0" y="0">Oviedo</tspan></text><text transform="translate(1072.63 139.06)" fill="#fff" font-family="ClearSans, &apos;Clear Sans&apos;" font-size="16"><tspan x="0" y="0">Gijón</tspan></text><text transform="translate(1225.65 182.17)" fill="#fff" font-family="ClearSans, &apos;Clear Sans&apos;" font-size="16"><tspan x="0" y="0">Vill</tspan><tspan x="21.82" y="0" letter-spacing="-.02em">a</tspan><tspan x="30.17" y="0">viciosa</tspan></text><polygon points="1286.84 279.31 1288.68 283.03 1292.79 283.63 1289.81 286.53 1290.52 290.62 1286.84 288.69 1283.17 290.62 1283.87 286.53 1280.9 283.63 1285 283.03 1286.84 279.31" fill="#fff" stroke-width="0"/><text transform="translate(1299.1 289.62)" fill="#fff" font-family="ClearSans-Bold, &apos;Clear Sans&apos;" font-size="18" font-weight="700"><tspan x="0" y="0">el g</tspan><tspan x="29.89" y="0" letter-spacing="0em">r</tspan><tspan x="37.1" y="0">an sueño</tspan></text><circle cx="1474.24" cy="200.9" r="3.72" fill="#fff" stroke-width="0"/><text transform="translate(1379.63 204.95)" fill="#fff" font-family="ClearSans, &apos;Clear Sans&apos;" font-size="16"><tspan x="0" y="0">Ribadesella</tspan></text><path d="M834.65,104.2l-9.33-5.99.11-3.11c0-1.06-.3-3-1.65-3h0c-1.38,0-1.65,1.94-1.65,3l.11,3.11-9.33,5.99s-.07.08-.07.13v1.24c0,.05.02.1.06.13.04.03.09.04.14.03l9.38-2.51.22,6.15-2.9,3.06s-.05.07-.05.12v.62c0,.06.03.11.08.14.05.03.11.04.16.01l2.92-1.28c.15.42.43.69.94.69h0c.51,0,.79-.27.94-.69l2.92,1.28c.05.02.11.02.16-.01.05-.03.08-.08.08-.14v-.62s-.02-.08-.05-.12l-2.9-3.06.22-6.15,9.38,2.51s.1,0,.14-.03c.04-.03.06-.08.06-.13v-1.24c0-.06-.03-.1-.07-.13Z" fill="#fff" fill-rule="evenodd" stroke-width="0"/></g></svg>